<svg width="102" height="193" viewBox="0 0 102 193" fill="none" xmlns="http://www.w3.org/2000/svg">
<path fill-rule="evenodd" clip-rule="evenodd" d="M77.6085 180.896C77.6085 180.896 74.8391 185.743 81.1166 186.503C81.1166 186.503 88.6866 189.354 90.4408 191.256C90.4408 191.256 99.2112 193.536 100.596 190.115C100.596 190.115 103.458 186.408 93.9489 181.466L89 176.085C89 176.085 82.4777 174.958 77.6085 180.896Z" fill="white"/>
<path fill-rule="evenodd" clip-rule="evenodd" d="M77.6085 180.896C77.6085 180.896 74.8391 185.743 81.1166 186.503C81.1166 186.503 88.6866 189.354 90.4408 191.256C90.4408 191.256 99.2112 193.536 100.596 190.115C100.596 190.115 103.458 186.408 93.9489 181.466L89 176.085C89 176.085 82.4777 174.958 77.6085 180.896Z" stroke="#2B2220"/>
<path fill-rule="evenodd" clip-rule="evenodd" d="M44.5437 32C44.5437 32 45.6989 33.8305 25.3582 34.4347C25.3582 34.4347 4.71632 36.0967 1.40188 44.7081C1.40188 44.7081 -2.21455 54.3767 12.2498 55.7363C12.2498 55.7363 16.4857 56.653 20.0059 55.7363C20.0059 55.7363 27.4968 56.579 26.2966 66.8555L24.9114 81.9469C24.9114 81.9469 23.7113 93.3345 26.3887 96.2048C26.3887 96.2048 28.6048 99.445 28.2354 105C28.2354 105 63.5996 103.056 73.1099 98.7967C73.1099 98.7967 79.2966 96.9455 77.9113 93.3345C77.9113 93.3345 76.5265 90.1866 75.5111 90.0015C75.5111 90.0015 78.8351 87.7794 69.7858 71.7627C69.7858 71.7627 68.3085 65.5598 68.5857 57.8752C68.5857 57.8752 77.542 57.0417 85.2986 57.5972C85.2986 57.5972 97.117 58.801 97.7636 49.1723C97.7636 49.1723 99.241 45.2838 94.8089 41.7656H84.652L76.3419 42.0436L62.0301 38.8029L59.9062 39.0809C59.9062 39.0809 57.598 45.0063 51.1346 43.8953C51.1346 43.8953 36.5374 42.3666 44.5437 32Z" fill="#FFCCF9"/>
<path fill-rule="evenodd" clip-rule="evenodd" d="M44.5437 32C44.5437 32 45.6989 33.8305 25.3582 34.4347C25.3582 34.4347 4.71632 36.0967 1.40188 44.7081C1.40188 44.7081 -2.21455 54.3767 12.2498 55.7363C12.2498 55.7363 16.4857 56.653 20.0059 55.7363C20.0059 55.7363 27.4968 56.579 26.2966 66.8555L24.9114 81.9469C24.9114 81.9469 23.7113 93.3345 26.3887 96.2048C26.3887 96.2048 28.6048 99.445 28.2354 105C28.2354 105 63.5996 103.056 73.1099 98.7967C73.1099 98.7967 79.2966 96.9455 77.9113 93.3345C77.9113 93.3345 76.5265 90.1866 75.5111 90.0015C75.5111 90.0015 78.8351 87.7794 69.7858 71.7627C69.7858 71.7627 68.3085 65.5598 68.5857 57.8752C68.5857 57.8752 77.542 57.0417 85.2986 57.5972C85.2986 57.5972 97.117 58.801 97.7636 49.1723C97.7636 49.1723 99.241 45.2838 94.8089 41.7656H84.652L76.3419 42.0436L62.0301 38.8029L59.9062 39.0809C59.9062 39.0809 57.598 45.0063 51.1346 43.8953C51.1346 43.8953 36.5374 42.3666 44.5437 32Z" stroke="#231F20"/>
<path fill-rule="evenodd" clip-rule="evenodd" d="M76.4576 107.104C78.0077 107.883 77.4266 112.167 77.4266 112.167L87.6966 137.871C91.9603 144.492 90.4098 155.202 90.4098 155.202C89.8282 160.655 90.9509 172.734 90.9509 172.734C95.5613 177.024 90.9509 180.799 90.9509 180.799C81.9006 178.912 77.2902 182 77.2902 182C75.0702 182 74.3228 177.378 74.3228 177.378C76.4775 174.13 75.6698 170.069 75.6698 170.069L71.6287 155.45C70.2277 152.635 70.1924 150.734 70.3397 149.748C70.4281 149.155 70.3614 148.545 70.1031 148.004C59.3907 125.518 50.8842 123.427 50.8842 123.427C50.8842 123.427 43.7374 122.946 35.032 142.4C34.7079 143.124 34.5982 143.923 34.6848 144.713C34.7981 145.743 34.6875 147.58 33.3713 150.224L29.3302 164.844C29.3302 164.844 28.6032 168.496 30.3677 171.646C30.573 172.011 30.6296 172.444 30.5313 172.853C30.2213 174.145 29.3846 176.774 27.7098 176.774C27.7098 176.774 23.0994 173.686 14.0491 175.573C14.0491 175.573 9.43867 171.799 14.0491 167.509C14.0491 167.509 15.1717 155.429 14.5902 149.977C14.5902 149.977 13.0401 139.267 17.3034 132.646L27.5734 106.942C27.5734 106.942 26.9923 102.657 28.5424 101.878L32.3139 90H69.8184C69.8184 90 71.5974 101.523 76.4576 107.104Z" fill="#4456C7"/>
<path fill-rule="evenodd" clip-rule="evenodd" d="M76.4576 107.104C78.0077 107.883 77.4266 112.167 77.4266 112.167L87.6966 137.871C91.9603 144.492 90.4098 155.202 90.4098 155.202C89.8282 160.655 90.9509 172.734 90.9509 172.734C95.5613 177.024 90.9509 180.799 90.9509 180.799C81.9006 178.912 77.2902 182 77.2902 182C75.0702 182 74.3228 177.378 74.3228 177.378C76.4775 174.13 75.6698 170.069 75.6698 170.069L71.6287 155.45C70.2277 152.635 70.1924 150.734 70.3397 149.748C70.4281 149.155 70.3614 148.545 70.1031 148.004C59.3907 125.518 50.8842 123.427 50.8842 123.427C50.8842 123.427 43.7374 122.946 35.032 142.4C34.7079 143.124 34.5982 143.923 34.6848 144.713C34.7981 145.743 34.6875 147.58 33.3713 150.224L29.3302 164.844C29.3302 164.844 28.6032 168.496 30.3677 171.646C30.573 172.011 30.6296 172.444 30.5313 172.853C30.2213 174.145 29.3846 176.774 27.7098 176.774C27.7098 176.774 23.0994 173.686 14.0491 175.573C14.0491 175.573 9.43867 171.799 14.0491 167.509C14.0491 167.509 15.1717 155.429 14.5902 149.977C14.5902 149.977 13.0401 139.267 17.3034 132.646L27.5734 106.942C27.5734 106.942 26.9923 102.657 28.5424 101.878L32.3139 90H69.8184C69.8184 90 71.5974 101.523 76.4576 107.104Z" stroke="#231F20"/>
<path fill-rule="evenodd" clip-rule="evenodd" d="M45.4564 28.1785C43.1168 24.2789 39.8669 15.2659 51.7528 6.04306C51.8483 5.96904 51.9466 5.90269 52.0513 5.84176C53.5114 4.99187 63.962 -0.489757 70.0094 12.7659C70.0401 12.8331 70.0732 12.8986 70.1104 12.9627C70.414 13.4858 72.0559 16.6398 71.9985 23.5161C71.9976 23.587 71.9944 23.6556 71.9884 23.726C71.9191 24.5059 71.4515 29.4572 70.499 32.0786C70.4305 32.2664 70.4122 32.4663 70.3488 32.6559C69.8688 34.0948 69.3319 37.2186 62.1726 37.2087C61.1015 37.2068 60.1352 37.8365 59.7517 38.8195L57.5829 44.3833C57.1195 45.5735 55.8239 46.237 54.5677 45.9219C49.6869 44.6961 38.6783 41.1029 41.4372 34.1124C41.6278 33.629 41.9897 33.2278 42.4366 32.9515L44.6251 31.5984C45.8032 30.8699 46.1633 29.3565 45.4564 28.1785Z" fill="white"/>
<path fill-rule="evenodd" clip-rule="evenodd" d="M45.4564 28.1785C43.1168 24.2789 39.8669 15.2659 51.7528 6.04306C51.8483 5.96904 51.9466 5.90269 52.0513 5.84176C53.5114 4.99187 63.962 -0.489757 70.0094 12.7659C70.0401 12.8331 70.0732 12.8986 70.1104 12.9627C70.414 13.4858 72.0559 16.6398 71.9985 23.5161C71.9976 23.587 71.9944 23.6556 71.9884 23.726C71.9191 24.5059 71.4515 29.4572 70.499 32.0786C70.4305 32.2664 70.4122 32.4663 70.3488 32.6559C69.8688 34.0948 69.3319 37.2186 62.1726 37.2087C61.1015 37.2068 60.1352 37.8365 59.7517 38.8195L57.5829 44.3833C57.1195 45.5735 55.8239 46.237 54.5677 45.9219C49.6869 44.6961 38.6783 41.1029 41.4372 34.1124C41.6278 33.629 41.9897 33.2278 42.4366 32.9515L44.6251 31.5984C45.8032 30.8699 46.1633 29.3565 45.4564 28.1785Z" stroke="#2B2220"/>
<path fill-rule="evenodd" clip-rule="evenodd" d="M45.8693 20.2933C46.3686 20.2454 46.8155 20.6281 47.0857 21.0587C47.3559 21.4898 47.5168 21.9881 47.8168 22.3976C48.0134 22.6652 48.3021 22.8936 48.6116 22.9756C48.861 23.041 49.105 22.8439 49.0956 22.5818C49.0549 21.4263 49.0617 20.249 49.4873 19.1842C49.7706 18.4759 50.2257 17.855 50.6757 17.2425C51.3435 16.3347 52.0109 15.4265 52.6788 14.5182C53.2395 13.756 53.8057 12.9836 54.1645 12.1039C54.427 11.4605 54.5739 10.7692 54.878 10.1451C55.0949 9.70024 55.3872 9.29816 55.6294 8.86707C56.0605 8.09747 56.3275 7.23298 56.408 6.351C56.4256 6.1548 56.572 5.99959 56.7645 5.98715C58.107 5.90056 59.5561 5.79924 60.8204 6.2027C62.2252 6.65175 63.4095 7.61065 64.5523 8.55665C66.0091 9.76195 67.4803 11.0041 68.511 12.6023C68.7514 12.9753 68.9741 13.3746 69.3189 13.6501C69.6637 13.925 70.1756 14.0438 70.5394 13.7951C70.7283 13.6653 70.8503 13.4585 70.9659 13.2586C71.378 12.5442 71.7955 11.817 71.9917 11.0129C72.1878 10.2087 72.134 9.30139 71.6609 8.62758C71.4607 8.34341 71.1864 7.95837 71.4151 7.69723C71.4955 7.60558 71.6175 7.56781 71.73 7.52314C72.3653 7.27259 72.8448 6.67017 72.9907 5.99544C73.0476 5.73246 72.8348 5.49573 72.5718 5.5206C70.327 5.73154 68.0225 5.25024 66.0434 4.14949C65.8735 4.05461 65.6828 3.9146 65.6946 3.71748C66.4437 3.31034 67.0049 2.57804 67.2517 1.75178C67.3484 1.42754 67.0172 1.15212 66.7126 1.28845C66.4984 1.38425 66.2616 1.44919 66.0393 1.50123C64.9725 1.75132 63.9061 2.00095 62.8402 2.25104C62.1235 2.41868 61.3933 2.58817 60.6604 2.52784C60.1182 2.48316 59.5945 2.31459 59.0717 2.16169C56.2806 1.34556 53.3706 0.954081 50.4674 1.00428C49.7548 1.01672 49.0138 1.06324 48.3889 1.41327C47.8868 1.69421 47.4982 2.15063 47.0048 2.44678C46.5837 2.69963 46.0898 2.83365 45.7229 3.16342C45.1278 3.69814 44.9669 4.65796 44.3438 5.12221C43.45 5.78726 42.6173 6.54075 42.0561 7.51301C40.7055 9.85268 39.1502 12.0694 37.4159 14.129C36.8041 14.8554 36.1647 15.5706 35.7147 16.4102C35.2524 17.2738 35.0044 18.2557 35.0003 19.2395C34.9976 19.7765 35.0044 19.9713 35.4282 20.291C35.5091 19.4177 35.2759 18.9189 35.5204 18.0775C35.669 17.5653 36.0147 17.1402 36.3523 16.7312C36.6469 16.3729 36.9953 15.993 37.3915 15.7797C37.7015 15.6125 38.0458 15.9308 37.9247 16.2665C37.3875 17.7601 37.345 19.4385 37.8222 20.9546C38.119 21.8974 38.603 22.7665 39.0996 23.6176C39.2636 23.8995 39.4348 24.1864 39.6865 24.3905C39.9328 24.5899 40.2373 24.6954 40.5197 24.8368C41.4149 25.2863 42.0845 26.1116 42.5463 27.0134C43.0086 27.9147 43.2856 28.9003 43.5806 29.8721C43.6647 30.148 43.7623 30.4418 43.9896 30.6146C44.1667 30.749 44.3949 30.7877 44.6131 30.8223C45.4576 30.9563 46.3446 31.0848 47.1711 30.9277C47.4711 30.8706 47.5782 30.4888 47.3636 30.2673C46.886 29.7749 46.5751 29.1131 46.5159 28.4223C46.5073 28.3246 46.5105 28.2104 46.5859 28.1496C46.6402 28.1059 46.7152 28.1045 46.7843 28.1049C47.0983 28.1072 47.2398 28.022 47.5543 28.0243C46.5204 27.6439 46.3022 27.1792 45.7703 26.4948C45.5132 26.1636 45.2539 25.8293 45.0695 25.4507C44.7274 24.7479 44.6655 23.9433 44.6095 23.1612C44.5684 22.5841 44.5286 21.9909 44.6999 21.4392C44.8711 20.8879 45.3045 20.3481 45.8693 20.2933Z" fill="#2B2220"/>
<path fill-rule="evenodd" clip-rule="evenodd" d="M45.8693 20.2933C46.3686 20.2454 46.8155 20.6281 47.0857 21.0587C47.3559 21.4898 47.5168 21.9881 47.8168 22.3976C48.0134 22.6652 48.3021 22.8936 48.6116 22.9756C48.861 23.041 49.105 22.8439 49.0956 22.5818C49.0549 21.4263 49.0617 20.249 49.4873 19.1842C49.7706 18.4759 50.2257 17.855 50.6757 17.2425C51.3436 16.3347 52.0109 15.4265 52.6788 14.5182C53.2395 13.756 53.8057 12.9836 54.1645 12.1039C54.427 11.4605 54.5739 10.7692 54.878 10.1451C55.0949 9.70024 55.3872 9.29816 55.6294 8.86707C56.0605 8.09747 56.3275 7.23298 56.408 6.351C56.4256 6.1548 56.572 5.99959 56.7645 5.98715C58.107 5.90056 59.5561 5.79924 60.8204 6.2027C62.2252 6.65175 63.4095 7.61065 64.5523 8.55665C66.0091 9.76195 67.4803 11.0041 68.511 12.6023C68.7514 12.9753 68.9741 13.3746 69.3189 13.6501C69.6637 13.925 70.1756 14.0438 70.5394 13.7951C70.7283 13.6653 70.8503 13.4585 70.9659 13.2586C71.378 12.5442 71.7955 11.817 71.9917 11.0129C72.1878 10.2087 72.134 9.30139 71.6609 8.62758C71.4607 8.34341 71.1864 7.95837 71.4151 7.69723C71.4955 7.60558 71.6175 7.56781 71.73 7.52314C72.3653 7.27259 72.8448 6.67017 72.9907 5.99544C73.0476 5.73246 72.8348 5.49573 72.5718 5.5206C70.327 5.73154 68.0225 5.25024 66.0434 4.14949C65.8735 4.05461 65.6828 3.9146 65.6946 3.71748C66.4437 3.31034 67.0049 2.57804 67.2517 1.75178C67.3484 1.42754 67.0171 1.15212 66.7126 1.28845C66.4984 1.38425 66.2616 1.44919 66.0393 1.50123C64.9725 1.75132 63.9061 2.00095 62.8402 2.25104C62.1235 2.41868 61.3933 2.58817 60.6604 2.52784C60.1182 2.48316 59.5945 2.31459 59.0717 2.16169C56.2806 1.34556 53.3706 0.954081 50.4674 1.00428C49.7548 1.01672 49.0138 1.06324 48.3889 1.41327C47.8868 1.69421 47.4982 2.15063 47.0048 2.44678C46.5837 2.69963 46.0898 2.83365 45.7229 3.16342C45.1278 3.69814 44.9669 4.65796 44.3438 5.12221C43.45 5.78726 42.6173 6.54075 42.0561 7.51301C40.7055 9.85268 39.1502 12.0694 37.4159 14.129C36.8041 14.8554 36.1647 15.5706 35.7147 16.4102C35.2524 17.2738 35.0044 18.2557 35.0003 19.2395C34.9976 19.7765 35.0044 19.9713 35.4282 20.291C35.5091 19.4177 35.2759 18.9189 35.5204 18.0775C35.669 17.5653 36.0147 17.1402 36.3523 16.7312C36.6469 16.3729 36.9953 15.993 37.3915 15.7797C37.7015 15.6125 38.0458 15.9308 37.9247 16.2665C37.3875 17.7601 37.345 19.4385 37.8222 20.9546C38.119 21.8974 38.603 22.7665 39.0996 23.6176C39.2636 23.8995 39.4348 24.1864 39.6865 24.3905C39.9328 24.5899 40.2373 24.6954 40.5197 24.8368C41.4149 25.2863 42.0845 26.1116 42.5463 27.0134C43.0086 27.9147 43.2856 28.9003 43.5806 29.8721C43.6647 30.148 43.7623 30.4418 43.9896 30.6146C44.1667 30.749 44.3949 30.7877 44.6131 30.8223C45.4576 30.9563 46.3446 31.0848 47.1711 30.9277C47.4711 30.8706 47.5782 30.4888 47.3636 30.2673C46.886 29.7749 46.5751 29.1131 46.5159 28.4223C46.5073 28.3246 46.5105 28.2104 46.5859 28.1496C46.6402 28.1059 46.7152 28.1045 46.7843 28.1049C47.0983 28.1072 47.2398 28.022 47.5543 28.0243C46.5204 27.6439 46.3022 27.1792 45.7703 26.4948C45.5132 26.1636 45.2539 25.8293 45.0695 25.4507C44.7274 24.7479 44.6655 23.9433 44.6095 23.1612C44.5684 22.5841 44.5286 21.9909 44.6999 21.4392C44.8711 20.8879 45.3045 20.3481 45.8693 20.2933Z" stroke="#2B2220"/>
<path fill-rule="evenodd" clip-rule="evenodd" d="M65.8067 27.0113C65.1411 27.1143 62.3612 27.6364 62.0156 29.2229C61.9291 29.6197 62.2133 30 62.5783 30H67.0173C67.35 30 67.6596 29.7934 67.8011 29.4566C68.1237 28.6888 68.3361 27.3432 66.0866 27.0098C65.9944 26.9958 65.8993 26.9972 65.8067 27.0113Z" stroke="#2B2220"/>
<path fill-rule="evenodd" clip-rule="evenodd" d="M54.2466 17.6616C54.2466 17.6616 60.8542 14.5471 64.2405 16.8461C64.4325 16.9763 64.6775 17.0056 64.9048 16.9495C65.3851 16.8316 66.2474 16.6712 67.0811 16.7819C67.2562 16.8048 67.4327 16.7874 67.5897 16.7091C68.3614 16.3245 71.0706 15.2699 74.6135 17.2307C74.8558 17.3647 75 17.6186 75 17.8879V18.0062C75 18.0062 74.2327 18.1538 73.9859 18.6898C73.9519 18.7639 73.9421 18.8451 73.9408 18.926C73.9306 19.4411 73.7975 21.5882 72.2917 22.7245C71.9109 23.0112 71.4275 23.1414 70.9437 23.1414H69.8363C69.5126 23.0738 69.3056 23.0048 69.1601 22.7798C68.533 21.8103 67.0333 19.1506 66.8379 18.3457C66.653 17.5855 65.8822 17.7616 65.6867 18.033C65.5739 18.19 65.5637 18.3938 65.5115 18.578C65.2497 19.4969 64.2166 22.6513 62.1089 23.6638C62.0717 23.6813 62.0333 23.697 61.9939 23.7098C61.5198 23.8659 58.3829 24.7763 56.3782 22.2842C56.3022 22.1902 56.2535 22.0787 56.2318 21.9613C56.1155 21.3372 55.6498 19.2157 54.6344 18.8787L54.5539 18.8528C54.1378 18.7183 53.8857 18.2759 54.0515 17.885C54.0944 17.7837 54.1568 17.7012 54.2466 17.6616Z" fill="#4456C7"/>
<path fill-rule="evenodd" clip-rule="evenodd" d="M54.2466 17.6616C54.2466 17.6616 60.8542 14.5471 64.2405 16.8461C64.4325 16.9763 64.6775 17.0056 64.9048 16.9495C65.3851 16.8316 66.2474 16.6712 67.0811 16.7819C67.2562 16.8048 67.4327 16.7874 67.5897 16.7091C68.3614 16.3245 71.0706 15.2699 74.6135 17.2307C74.8558 17.3647 75 17.6186 75 17.8879V18.0062C75 18.0062 74.2327 18.1538 73.9859 18.6898C73.9519 18.7639 73.9421 18.8451 73.9408 18.926C73.9306 19.4411 73.7975 21.5882 72.2917 22.7245C71.9109 23.0112 71.4275 23.1414 70.9437 23.1414H69.8363C69.5126 23.0738 69.3056 23.0048 69.1601 22.7798C68.533 21.8103 67.0333 19.1506 66.8379 18.3457C66.653 17.5855 65.8822 17.7616 65.6867 18.033C65.5739 18.19 65.5637 18.3938 65.5115 18.578C65.2497 19.4969 64.2166 22.6513 62.1089 23.6638C62.0717 23.6813 62.0333 23.697 61.9939 23.7098C61.5198 23.8659 58.3829 24.7763 56.3782 22.2842C56.3022 22.1902 56.2535 22.0787 56.2318 21.9613C56.1155 21.3372 55.6498 19.2157 54.6344 18.8787L54.5539 18.8528C54.1378 18.7183 53.8857 18.2759 54.0515 17.885C54.0944 17.7837 54.1568 17.7012 54.2466 17.6616Z" stroke="#231F20"/>
<path fill-rule="evenodd" clip-rule="evenodd" d="M65.806 23.4365C65.806 23.6055 65.669 23.8695 65.5 23.8695C65.331 23.8695 65.194 23.6055 65.194 23.4365C65.194 23.2675 65.331 23.1305 65.5 23.1305C65.669 23.1305 65.806 23.2675 65.806 23.4365Z" fill="#2B2220"/>
<path fill-rule="evenodd" clip-rule="evenodd" d="M65.806 23.4365C65.806 23.6055 65.669 23.8695 65.5 23.8695C65.331 23.8695 65.194 23.6055 65.194 23.4365C65.194 23.2675 65.331 23.1305 65.5 23.1305C65.669 23.1305 65.806 23.2675 65.806 23.4365Z" stroke="#2B2220" stroke-width="0.25"/>
<path fill-rule="evenodd" clip-rule="evenodd" d="M66.806 23.4365C66.806 23.6055 66.669 23.8695 66.5 23.8695C66.331 23.8695 66.194 23.6055 66.194 23.4365C66.194 23.2675 66.331 23.1305 66.5 23.1305C66.669 23.1305 66.806 23.2675 66.806 23.4365Z" fill="#2B2220"/>
<path fill-rule="evenodd" clip-rule="evenodd" d="M66.806 23.4365C66.806 23.6055 66.669 23.8695 66.5 23.8695C66.331 23.8695 66.194 23.6055 66.194 23.4365C66.194 23.2675 66.331 23.1305 66.5 23.1305C66.669 23.1305 66.806 23.2675 66.806 23.4365Z" stroke="#2B2220" stroke-width="0.25"/>
<path d="M66.6943 25.6638V26.8732" stroke="#2B2220" stroke-linecap="round" stroke-linejoin="round"/>
<path fill-rule="evenodd" clip-rule="evenodd" d="M64.424 25.2862L64.0935 26.6822L64.424 25.2862Z" fill="#2B2220"/>
<path d="M64.424 25.2862L64.0935 26.6822" stroke="#2B2220" stroke-linecap="round" stroke-linejoin="round"/>
<path fill-rule="evenodd" clip-rule="evenodd" d="M63.5511 26.4048L63.0371 27.6463L63.5511 26.4048Z" fill="#2B2220"/>
<path d="M63.5511 26.4048L63.0371 27.6463" stroke="#2B2220" stroke-linecap="round" stroke-linejoin="round"/>
<path fill-rule="evenodd" clip-rule="evenodd" d="M61.604 27.3941L61.1265 28.5331L61.604 27.3941Z" fill="#2B2220"/>
<path d="M61.604 27.3941L61.1265 28.5331" stroke="#2B2220" stroke-linecap="round" stroke-linejoin="round"/>
<path fill-rule="evenodd" clip-rule="evenodd" d="M8.04053 54.371C18.3346 57.2634 21.4501 54.371 21.4501 54.371H26.0555C22.9401 50.0325 27.681 47.0091 27.681 47.0091L23.2528 45.7804C23.2528 45.7804 17.0292 40.1713 10.8055 41.4662" fill="#FFCCF9"/>
<path d="M8.04053 54.371C18.3346 57.2634 21.4501 54.371 21.4501 54.371H26.0555C22.9401 50.0325 27.681 47.0091 27.681 47.0091L23.2528 45.7804C23.2528 45.7804 17.0292 40.1713 10.8055 41.4662" stroke="#231F20"/>
<path fill-rule="evenodd" clip-rule="evenodd" d="M28.3384 47.1012C28.3384 47.1012 31.821 47.3991 33.1525 47.1012C34.484 46.8033 37.0359 46.0615 37.0359 46.0615C37.0359 46.0615 38.7005 45.5481 40.5867 47.4872L44.4149 52.1071C44.4149 52.1071 45.469 54.1604 44.7475 56.8412C44.7475 56.8412 44.2909 58.3744 41.5883 58.0424C41.5883 58.0424 40.619 59.8844 39.7671 59.9749C39.7671 59.9749 34.5678 60.6091 30.1029 55.5056L28.3384 55.2938H26.313C26.313 55.2938 22.2854 50.5048 28.3384 47.1012Z" fill="white"/>
<path fill-rule="evenodd" clip-rule="evenodd" d="M28.3384 47.1012C28.3384 47.1012 31.821 47.3991 33.1525 47.1012C34.484 46.8033 37.0359 46.0615 37.0359 46.0615C37.0359 46.0615 38.7005 45.5481 40.5867 47.4872L44.4149 52.1071C44.4149 52.1071 45.469 54.1604 44.7475 56.8412C44.7475 56.8412 44.2909 58.3744 41.5883 58.0424C41.5883 58.0424 40.619 59.8844 39.7671 59.9749C39.7671 59.9749 34.5678 60.6091 30.1029 55.5056L28.3384 55.2938H26.313C26.313 55.2938 22.2854 50.5048 28.3384 47.1012Z" stroke="#2B2220"/>
<path d="M38.1216 50V51.2553C38.1216 51.2553 37.0209 51.5905 37 52.678C37 52.678 38.2878 53.5151 39.6169 52.4899C39.6169 52.4899 40.1986 51.8829 39.9284 50.565" stroke="#2B2220" stroke-linecap="round" stroke-linejoin="round"/>
<path d="M38.0021 53.0391C38.0021 53.0391 37.8676 55.2151 39.7493 54.9826C39.7493 54.9826 41.8655 54.351 42 52.3903V51" stroke="#2B2220" stroke-linecap="round" stroke-linejoin="round"/>
<path d="M40 54.9366C40 54.9366 40.254 56.2485 41.3492 55.958C41.3492 55.958 43 55.5297 43 54.6035V53" stroke="#2B2220" stroke-linecap="round" stroke-linejoin="round"/>
<path d="M41.1028 57C41.1028 57 40.552 57.8808 42 58" stroke="#2B2220" stroke-linecap="round" stroke-linejoin="round"/>
<path d="M37 53C37 53 36.0794 55.049 35 54.9991" stroke="#2B2220" stroke-linecap="round" stroke-linejoin="round"/>
<path d="M23 49C23 49 19.1656 52.2987 22.1152 54" stroke="#2B2220"/>
<path d="M38.7987 55C38.7987 55 37.4547 57.3969 38.7987 58" stroke="#2B2220" stroke-linecap="round" stroke-linejoin="round"/>
<path fill-rule="evenodd" clip-rule="evenodd" d="M83.0358 41.6404C82.9266 40.9228 83.0895 40.3564 83.2228 39.8938C83.9256 37.4524 86.1208 36.3365 86.6992 36.0651C86.6992 36.0651 94.1397 35.0366 96.308 41.1561C96.308 41.1561 98.1802 45.2697 95.7657 47.378C93.5025 49.3544 86.8468 45.9892 86.8468 45.9892C86.8473 45.9897 83.4241 44.1919 83.0358 41.6404Z" fill="#F1F1F2"/>
<path fill-rule="evenodd" clip-rule="evenodd" d="M83.0358 41.6404C82.9266 40.9228 83.0895 40.3564 83.2228 39.8938C83.9256 37.4524 86.1208 36.3365 86.6992 36.0651C86.6992 36.0651 94.1397 35.0366 96.308 41.1561C96.308 41.1561 98.1802 45.2697 95.7657 47.378C93.5025 49.3544 86.8468 45.9892 86.8468 45.9892C86.8473 45.9897 83.4241 44.1919 83.0358 41.6404Z" stroke="#2B2220" stroke-linecap="round" stroke-linejoin="round"/>
<path fill-rule="evenodd" clip-rule="evenodd" d="M83.0142 42.0242C83.0142 42.0242 81.4393 41.6851 82.2146 43.5443C82.2146 43.5443 83.4437 46.2878 85.635 45.9752C85.6362 45.9748 85.6362 45.9756 85.637 45.9748C85.6519 45.9541 86.7383 44.4505 85.0792 43.3411C85.0265 43.3057 84.9687 43.2796 84.9089 43.2624C84.5549 43.1581 83.7163 42.3162 83.0142 42.0242Z" fill="#F1F1F2"/>
<path fill-rule="evenodd" clip-rule="evenodd" d="M83.0142 42.0242C83.0142 42.0242 81.4393 41.6851 82.2146 43.5443C82.2146 43.5443 83.4437 46.2878 85.635 45.9752C85.6362 45.9748 85.6362 45.9756 85.637 45.9748C85.6519 45.9541 86.7383 44.4505 85.0792 43.3411C85.0265 43.3057 84.9687 43.2796 84.9089 43.2624C84.5549 43.1581 83.7163 42.3162 83.0142 42.0242Z" stroke="#2B2220" stroke-linecap="round" stroke-linejoin="round"/>
<path d="M87.7986 38C87.7986 38 86.1375 41.2917 86 42.258C86 42.258 86.0212 43.7001 87.7986 43.9747C87.7986 43.9747 88.3807 44.0786 88.4769 43.8652C88.4769 43.8652 88.0531 40.8768 90 38.6348" stroke="#2B2220"/>
<path d="M88 42.9457C88 42.9457 88.5576 44.4945 90.3946 43.8377C90.3946 43.8377 89.8651 42.4552 92 39" stroke="#2B2220"/>
<path d="M92 43.6194C92 43.6194 93.3553 44.6918 94.3132 43.2364C94.3132 43.2364 93.7171 41.9765 95 41" stroke="#2B2220"/>
<path d="M89 49.1594C89 49.1594 94 53.9899 96 48" stroke="#2B2220"/>
<path d="M86 48C86 48 82.1727 52.0885 85.107 56" stroke="#2B2220" stroke-linecap="round" stroke-linejoin="round"/>
<path d="M82 50C82 50 78.6927 52.7775 79.0232 55" stroke="#2B2220" stroke-linecap="round" stroke-linejoin="round"/>
<path d="M42 43.9179C42 43.9179 55.0626 51.994 61 42" stroke="#2B2220"/>
<path d="M32 37C32 37 35.2089 39.4499 33.4975 45" stroke="#2B2220"/>
<path fill-rule="evenodd" clip-rule="evenodd" d="M13.7132 174.79C13.7132 174.79 13.7132 179.384 9.84593 181.606C5.97909 183.829 7.05331 187.407 7.41289 187.407C7.41289 187.407 12.2338 190.991 20.5805 187.407C20.5805 187.407 24.1587 185.703 24.7053 182.833C24.7053 182.833 27.834 181.151 27.834 179.716C27.834 179.716 28.6286 176.549 26.7412 175.955C26.7412 175.955 21.0476 172.486 13.7132 174.79Z" fill="white"/>
<path fill-rule="evenodd" clip-rule="evenodd" d="M13.7132 174.79C13.7132 174.79 13.7132 179.384 9.84593 181.606C5.97909 183.829 7.05331 187.407 7.41289 187.407C7.41289 187.407 12.2338 190.991 20.5805 187.407C20.5805 187.407 24.1587 185.703 24.7053 182.833C24.7053 182.833 27.834 181.151 27.834 179.716C27.834 179.716 28.6286 176.549 26.7412 175.955C26.7412 175.955 21.0476 172.486 13.7132 174.79Z" stroke="#2B2220"/>
<path fill-rule="evenodd" clip-rule="evenodd" d="M29 101.908C29 101.908 36.753 103.438 56.1346 94.0051C56.1346 94.0051 69.0562 87.1214 75 90.9457L61.133 64L33.1739 67.2335L29 101.908Z" fill="#FFCCF9"/>
<path d="M29 101C29 101 46.3533 99.2997 62.2745 91.2836C62.2745 91.2836 69.7567 88.0248 74 91.8921" stroke="#2B2220"/>
<path d="M32 96C32 96 40.0791 96 60.0737 86.6326C60.0737 86.6326 69.5665 83.7819 73 85.6143" stroke="#2B2220"/>
<path d="M55.5306 100C55.5306 100 57.6147 113.8 53 115" stroke="#2B2220"/>
<path d="M51 100C51 100 52.8121 118.305 51.5576 120" stroke="#2B2220"/>
<path d="M46 99.8203C46 99.8203 53.7076 101.066 62 97" stroke="#2B2220"/>
</svg>
