<svg width="107" height="215" viewBox="0 0 107 215" fill="none" xmlns="http://www.w3.org/2000/svg">
<path fill-rule="evenodd" clip-rule="evenodd" d="M87.815 27.5468C87.815 27.5468 87.0089 34.4777 82.8745 38.877C82.6607 39.1042 82.7178 39.4721 82.997 39.608C84.1772 40.1803 86.9617 41.3015 88.6646 40.1102C88.7118 40.0773 88.7647 40.0529 88.8207 40.0412L91.3041 39.5332C91.3685 39.5194 91.4356 39.5209 91.4995 39.5369L93.1327 39.9419C93.3884 40.0051 93.6419 39.8342 93.6833 39.5703C94.2689 35.8346 97.6045 11.7185 87.4264 4.3926C87.4138 4.38358 87.4023 4.37561 87.3892 4.36765C86.8119 4.01038 73.7371 -3.89472 65.0267 7.4249C65.0267 7.4249 52.7297 22.7812 55.1901 33.1368C55.2047 33.1984 55.2068 33.2589 55.1943 33.321C55.0502 34.0377 54.0209 38.7231 51.4176 40.6936C51.0656 40.9601 51.2358 41.5212 51.6748 41.5212H54.8737C54.9072 41.5212 54.9381 41.525 54.9711 41.5324C55.1675 41.5765 55.9847 41.7028 56.7479 40.9851C57.058 40.6936 57.5566 40.9293 57.5116 41.3561C57.4529 41.9183 57.3288 42.4407 57.0747 42.5548C56.4813 42.8208 59.5518 44.4994 65.1105 43.0841C65.1608 43.0708 65.21 43.0491 65.2535 43.0199L66.4588 42.2167C66.6751 42.0723 66.9669 42.1434 67.0952 42.3712L67.6829 43.4143C67.7631 43.5566 67.9129 43.6442 68.0747 43.6436L73.2694 43.6213" fill="#2B2220"/>
<path d="M87.815 27.5468C87.815 27.5468 87.0089 34.4777 82.8745 38.877C82.6607 39.1042 82.7178 39.4721 82.997 39.608C84.1772 40.1803 86.9617 41.3015 88.6646 40.1102C88.7118 40.0773 88.7647 40.0529 88.8207 40.0412L91.3041 39.5332C91.3685 39.5194 91.4356 39.5209 91.4995 39.5369L93.1327 39.9419C93.3884 40.0051 93.6419 39.8342 93.6833 39.5703C94.2689 35.8346 97.6045 11.7185 87.4264 4.3926C87.4138 4.38358 87.4023 4.37561 87.3892 4.36765C86.8119 4.01038 73.7371 -3.89472 65.0267 7.4249C65.0267 7.4249 52.7297 22.7812 55.1901 33.1368C55.2047 33.1984 55.2068 33.2589 55.1943 33.321C55.0502 34.0377 54.0209 38.7231 51.4176 40.6936C51.0656 40.9601 51.2358 41.5212 51.6748 41.5212H54.8737C54.9072 41.5212 54.9381 41.525 54.9711 41.5324C55.1675 41.5765 55.9847 41.7028 56.7479 40.9851C57.058 40.6936 57.5566 40.9293 57.5116 41.3561C57.4529 41.9183 57.3288 42.4407 57.0747 42.5548C56.4813 42.8208 59.5518 44.4994 65.1105 43.0841C65.1608 43.0708 65.21 43.0491 65.2535 43.0199L66.4588 42.2167C66.6751 42.0723 66.9669 42.1434 67.0952 42.3712L67.6829 43.4143C67.7631 43.5566 67.9129 43.6442 68.0747 43.6436L73.2694 43.6213" stroke="#2B2220"/>
<path fill-rule="evenodd" clip-rule="evenodd" d="M32 151C32 151 37.0045 162.183 35.5327 166.018C35.5327 166.018 40.6542 170.478 45 166.018L43.5017 151H32Z" fill="white"/>
<path fill-rule="evenodd" clip-rule="evenodd" d="M32 151C32 151 37.0045 162.183 35.5327 166.018C35.5327 166.018 40.6542 170.478 45 166.018L43.5017 151H32Z" stroke="#2B2220"/>
<path fill-rule="evenodd" clip-rule="evenodd" d="M87 188C87 188 92.0045 199.183 90.5327 203.018C90.5327 203.018 95.6542 207.478 100 203.018L98.5012 188H87Z" fill="white"/>
<path fill-rule="evenodd" clip-rule="evenodd" d="M87 188C87 188 92.0045 199.183 90.5327 203.018C90.5327 203.018 95.6542 207.478 100 203.018L98.5012 188H87Z" stroke="#2B2220"/>
<path fill-rule="evenodd" clip-rule="evenodd" d="M73.5129 43.2143C73.5129 43.2143 72.935 40.2242 66.7261 38.2833C64.8959 37.7115 63.2767 36.5856 62.2334 34.9932C59.7477 31.1997 57.4493 23.3642 66.4142 10.7564C66.4142 10.7564 73.257 0.509422 82.6377 5.25412C82.6377 5.25412 92.0184 9.46298 91.5819 21.5929C91.5819 21.5929 96.3121 20.3825 92.5409 25.8315C92.5409 25.8315 91.355 27.2381 90.27 29.4164C89.9728 30.0122 89.253 30.3383 88.6355 30.0758C88.0571 29.8301 87.6164 29.1508 88.1679 27.416C88.1679 27.416 85.8617 32.2734 86.2628 34.7522L88.9158 52.9499L90.8135 62L70.2097 58.5012L73.5129 43.2143Z" fill="white"/>
<path fill-rule="evenodd" clip-rule="evenodd" d="M73.5129 43.2143C73.5129 43.2143 72.935 40.2242 66.7261 38.2833C64.8959 37.7115 63.2767 36.5856 62.2334 34.9932C59.7477 31.1997 57.4493 23.3642 66.4142 10.7564C66.4142 10.7564 73.257 0.509422 82.6377 5.25412C82.6377 5.25412 92.0184 9.46298 91.5819 21.5929C91.5819 21.5929 96.3121 20.3825 92.5409 25.8315C92.5409 25.8315 91.355 27.2381 90.27 29.4164C89.9728 30.0122 89.253 30.3383 88.6355 30.0758C88.0571 29.8301 87.6164 29.1508 88.1679 27.416C88.1679 27.416 85.8617 32.2734 86.2628 34.7522L88.9158 52.9499L90.8135 62L70.2097 58.5012L73.5129 43.2143Z" stroke="#2B2220"/>
<path fill-rule="evenodd" clip-rule="evenodd" d="M81.7534 19.8692C81.7534 19.8692 75.1459 16.3655 71.7594 18.9519C71.5674 19.0984 71.3228 19.1315 71.0953 19.068C70.6151 18.9351 69.7529 18.7555 68.9188 18.8792C68.7434 18.9053 68.5674 18.8857 68.4105 18.7979C67.6386 18.365 64.9293 17.1787 61.3865 19.3842C61.1444 19.535 61 19.8215 61 20.1236V20.257C61 20.257 61.7674 20.423 62.014 21.0262C62.0481 21.1092 62.0581 21.2009 62.0592 21.2915C62.0692 21.8708 62.2025 24.2869 63.7083 25.5649C64.0892 25.8876 64.5729 26.0341 65.0562 26.0341H66.1634C66.4877 25.9581 66.6948 25.8806 66.8401 25.6272C67.4672 24.5364 68.9664 21.5443 69.1624 20.6389C69.3474 19.7835 70.1183 19.982 70.3133 20.2869C70.4261 20.4637 70.4366 20.6932 70.4887 20.8998C70.7499 21.9337 71.783 25.483 73.8913 26.6215C73.9284 26.6416 73.9669 26.659 74.006 26.6736C74.4807 26.8494 77.6171 27.873 79.6221 25.0696C79.6978 24.9638 79.7469 24.8385 79.7685 24.7062C79.8843 24.0042 80.3499 21.6175 81.3655 21.2383L81.4462 21.209C81.8622 21.0582 82.1143 20.5603 81.9484 20.1203C81.9053 20.0064 81.8432 19.9142 81.7534 19.8692Z" fill="#3EEDFF"/>
<path fill-rule="evenodd" clip-rule="evenodd" d="M81.7534 19.8692C81.7534 19.8692 75.1459 16.3655 71.7594 18.9519C71.5674 19.0984 71.3228 19.1315 71.0953 19.068C70.6151 18.9351 69.7529 18.7555 68.9188 18.8792C68.7434 18.9053 68.5674 18.8857 68.4105 18.7979C67.6386 18.365 64.9293 17.1787 61.3865 19.3842C61.1444 19.535 61 19.8215 61 20.1236V20.257C61 20.257 61.7674 20.423 62.014 21.0262C62.0481 21.1092 62.0581 21.2009 62.0592 21.2915C62.0692 21.8708 62.2025 24.2869 63.7083 25.5649C64.0892 25.8876 64.5729 26.0341 65.0562 26.0341H66.1634C66.4877 25.9581 66.6948 25.8806 66.8401 25.6272C67.4672 24.5364 68.9664 21.5443 69.1624 20.6389C69.3474 19.7835 70.1183 19.982 70.3133 20.2869C70.4261 20.4637 70.4366 20.6932 70.4887 20.8998C70.7499 21.9337 71.783 25.483 73.8913 26.6215C73.9284 26.6416 73.9669 26.659 74.006 26.6736C74.4807 26.8494 77.6171 27.873 79.6221 25.0696C79.6978 24.9638 79.7469 24.8385 79.7685 24.7062C79.8843 24.0042 80.3499 21.6175 81.3655 21.2383L81.4462 21.209C81.8622 21.0582 82.1143 20.5603 81.9484 20.1203C81.9053 20.0064 81.8432 19.9142 81.7534 19.8692Z" stroke="#231F20"/>
<path fill-rule="evenodd" clip-rule="evenodd" d="M72.6565 45.3901C72.6565 45.3901 76.9795 62.539 89.948 45.3901C89.948 45.3901 100.755 40.6399 101.403 50.6071C101.403 50.6071 104.431 61.3964 96.8456 72.384C96.8456 72.384 98.6458 86.3405 98.0941 92.0117C98.0941 92.0117 82.1539 112.661 67.2966 101.887C67.2966 101.887 58.6951 84.9563 59.4768 68.9055C59.4768 68.9055 47.5128 74.959 43.6974 75.281C43.6974 75.281 40.1687 76.3538 35.3045 75.3883L33.0154 77.8554C33.0154 77.8554 27.8657 76.5684 26.4348 77.1046C26.4348 77.1046 23.5736 76.3538 23.2875 71.0976C23.2875 71.0976 21.8797 64.3499 25.2947 59.365C25.2947 59.365 28.3466 60.836 32.7058 59.1197C32.7058 59.1197 34.572 58.8389 35.326 61.0564C35.326 61.0564 37.2394 60.6652 37.7031 61.4477C37.7031 61.4477 39.9068 60.0127 41.7044 60.5346C43.502 61.0564 54.994 53.4051 56.4988 51.5514C56.4988 51.5514 70.8306 40.1154 72.6565 45.3901Z" fill="#4456C7"/>
<path fill-rule="evenodd" clip-rule="evenodd" d="M72.6565 45.3901C72.6565 45.3901 76.9795 62.539 89.948 45.3901C89.948 45.3901 100.755 40.6399 101.403 50.6071C101.403 50.6071 104.431 61.3964 96.8456 72.384C96.8456 72.384 98.6458 86.3405 98.0941 92.0117C98.0941 92.0117 82.1539 112.661 67.2966 101.887C67.2966 101.887 58.6951 84.9563 59.4768 68.9055C59.4768 68.9055 47.5128 74.959 43.6974 75.281C43.6974 75.281 40.1687 76.3538 35.3045 75.3883L33.0154 77.8554C33.0154 77.8554 27.8657 76.5684 26.4348 77.1046C26.4348 77.1046 23.5736 76.3538 23.2875 71.0976C23.2875 71.0976 21.8797 64.3499 25.2947 59.365C25.2947 59.365 28.3466 60.836 32.7058 59.1197C32.7058 59.1197 34.572 58.8389 35.326 61.0564C35.326 61.0564 37.2394 60.6652 37.7031 61.4477C37.7031 61.4477 39.9068 60.0127 41.7044 60.5346C43.502 61.0564 54.994 53.4051 56.4988 51.5514C56.4988 51.5514 70.8306 40.1154 72.6565 45.3901Z" stroke="#231F20"/>
<path fill-rule="evenodd" clip-rule="evenodd" d="M66.9108 99.3931C66.9108 99.3931 59.3206 109.28 58.0964 110.14L56.8722 111.001C56.8722 111.001 28.4692 116.187 27 127.548C27 127.548 31.6528 145.074 29.5712 151.022C29.5712 151.022 31.7558 155.357 44.1527 152.533C44.1527 152.533 46.5522 135.322 45.4857 133.977C45.4857 133.977 69.6141 127.792 78.1455 131.692C78.1455 131.692 76.414 167.037 79.6803 172.413C79.6803 172.413 87.0457 188.911 86.0697 192.455C86.0697 192.455 94.2665 194.423 99.0478 190.88C99.0478 190.88 96.2696 157.881 95.6765 156.984C95.0834 156.087 111.833 122.296 103.829 102.709L98.0484 90C98.0484 90 86.1722 100.861 66.9108 99.3931Z" fill="#FFCCF9"/>
<path fill-rule="evenodd" clip-rule="evenodd" d="M66.9108 99.3931C66.9108 99.3931 59.3206 109.28 58.0964 110.14L56.8722 111.001C56.8722 111.001 28.4692 116.187 27 127.548C27 127.548 31.6528 145.074 29.5712 151.022C29.5712 151.022 31.7558 155.357 44.1527 152.533C44.1527 152.533 46.5522 135.322 45.4857 133.977C45.4857 133.977 69.6141 127.792 78.1455 131.692C78.1455 131.692 76.414 167.037 79.6803 172.413C79.6803 172.413 87.0457 188.911 86.0697 192.455C86.0697 192.455 94.2665 194.423 99.0478 190.88C99.0478 190.88 96.2696 157.881 95.6765 156.984C95.0834 156.087 111.833 122.296 103.829 102.709L98.0484 90C98.0484 90 86.1722 100.861 66.9108 99.3931Z" stroke="#231F20"/>
<path d="M90.4358 59C90.4358 59 85.0951 69.2906 80.7378 72.3919C80.7378 72.3919 76.5433 71.181 72 77.2018C72 77.2018 76.2186 75.2492 78.4093 78.7482C78.4093 78.7482 81.0861 82.8975 77.1923 85.3388C77.1923 85.3388 74.4914 86.2407 78.1853 86.9819C78.1853 86.9819 81.4146 87.3995 83.392 84.2262C83.392 84.2262 85.4354 81.1846 88.9294 80.9863C88.9294 80.9863 96.9057 73.3562 97 71.6507" stroke="#2B2220"/>
<path fill-rule="evenodd" clip-rule="evenodd" d="M75.2958 75.7551C75.2958 75.7551 71.6237 76.5995 70.1462 76.2585C68.6688 75.918 65.8372 75.0703 65.8372 75.0703C65.8372 75.0703 63.9901 74.4835 61.8972 76.7002L57.6495 81.9801C57.6495 81.9801 56.4798 84.3262 57.2799 87.39C57.2799 87.39 57.787 89.1422 60.7858 88.7627C60.7858 88.7627 61.8614 90.8679 62.8067 90.9713C62.8067 90.9713 68.5758 91.6961 73.53 85.8635L75.4875 85.6221L77.5431 85.1181C77.5431 85.1181 82.0122 79.6449 75.2958 75.7551Z" fill="white"/>
<path fill-rule="evenodd" clip-rule="evenodd" d="M75.2958 75.7551C75.2958 75.7551 71.6237 76.5995 70.1462 76.2585C68.6688 75.918 65.8372 75.0703 65.8372 75.0703C65.8372 75.0703 63.9901 74.4835 61.8972 76.7002L57.6495 81.9801C57.6495 81.9801 56.4798 84.3262 57.2799 87.39C57.2799 87.39 57.787 89.1422 60.7858 88.7627C60.7858 88.7627 61.8614 90.8679 62.8067 90.9713C62.8067 90.9713 68.5758 91.6961 73.53 85.8635L75.4875 85.6221L77.5431 85.1181C77.5431 85.1181 82.0122 79.6449 75.2958 75.7551Z" stroke="#2B2220"/>
<path d="M64.5046 78V79.6737C64.5046 79.6737 65.9726 80.1202 66 81.5707C66 81.5707 64.283 82.6868 62.5108 81.3199C62.5108 81.3199 61.7352 80.5106 62.0954 78.7533" stroke="#2B2220" stroke-linecap="round" stroke-linejoin="round"/>
<path d="M64.9974 82.5486C64.9974 82.5486 65.1655 85.2689 62.814 84.9783C62.814 84.9783 60.1681 84.1887 60 81.738V80" stroke="#2B2220" stroke-linecap="round" stroke-linejoin="round"/>
<path d="M63 84.5821C63 84.5821 62.746 86.3313 61.6508 85.944C61.6508 85.944 60 85.373 60 84.138V82" stroke="#2B2220" stroke-linecap="round" stroke-linejoin="round"/>
<path d="M60.8972 87C60.8972 87 61.448 88.7616 60 89" stroke="#2B2220" stroke-linecap="round" stroke-linejoin="round"/>
<path d="M66 82C66 82 66.9204 84.0484 68 83.9991" stroke="#2B2220" stroke-linecap="round" stroke-linejoin="round"/>
<path d="M64.2013 86C64.2013 86 65.5453 87.5983 64.2013 88" stroke="#2B2220" stroke-linecap="round" stroke-linejoin="round"/>
<path fill-rule="evenodd" clip-rule="evenodd" d="M46.3661 164.59C46.3661 164.59 49.2511 169.134 42.7118 169.847C42.7118 169.847 34.8263 172.519 32.9991 174.302C32.9991 174.302 23.8634 176.44 22.4209 173.233C22.4209 173.233 19.4399 169.757 29.3448 165.124L34.5001 160.08C34.5001 160.08 41.294 159.024 46.3661 164.59Z" fill="white"/>
<path fill-rule="evenodd" clip-rule="evenodd" d="M46.3661 164.59C46.3661 164.59 49.2511 169.134 42.7118 169.847C42.7118 169.847 34.8263 172.519 32.9991 174.302C32.9991 174.302 23.8634 176.44 22.4209 173.233C22.4209 173.233 19.4399 169.757 29.3448 165.124L34.5001 160.08C34.5001 160.08 41.294 159.024 46.3661 164.59Z" stroke="#2B2220"/>
<path fill-rule="evenodd" clip-rule="evenodd" d="M103.366 203.59C103.366 203.59 106.251 208.134 99.7118 208.847C99.7118 208.847 91.8264 211.519 89.9992 213.302C89.9992 213.302 80.8635 215.44 79.421 212.233C79.421 212.233 76.4395 208.757 86.3449 204.124L91.5002 199.08C91.5002 199.08 98.2941 198.024 103.366 203.59Z" fill="white"/>
<path fill-rule="evenodd" clip-rule="evenodd" d="M103.366 203.59C103.366 203.59 106.251 208.134 99.7118 208.847C99.7118 208.847 91.8264 211.519 89.9992 213.302C89.9992 213.302 80.8635 215.44 79.421 212.233C79.421 212.233 76.4395 208.757 86.3449 204.124L91.5002 199.08C91.5002 199.08 98.2941 198.024 103.366 203.59Z" stroke="#2B2220"/>
<path fill-rule="evenodd" clip-rule="evenodd" d="M22 63.6268C22 63.6268 15.6008 62.7583 15.6008 60.913C15.6008 60.913 14.627 51.6042 14.8358 47.7268C14.8358 47.7268 14.3489 45.2754 13.0964 47.3244C13.0964 47.3244 12.4007 54.6776 12.5051 54.7869C12.6095 54.8967 11.462 55.1528 11.2878 50.6164C11.2878 50.6164 10.7803 44.3229 9.25228 44.4285C9.25228 44.4285 8.90792 42.5827 7.37237 43.0874C7.37237 43.0874 6.20226 43.448 6.43016 46.7115C6.43016 46.7115 4.97041 44.504 4.14867 46.7115C4.14867 46.7115 4.21594 53.7235 5.6014 56.3861C5.6014 56.3861 6.2886 58.5176 6.34081 59.2689C6.34683 59.3555 6.24242 59.3961 6.19122 59.328C5.64708 58.602 3.43787 55.8624 1.44502 56.3861C1.44502 56.3861 -0.417317 57.3418 3.47753 59.6258C3.68033 59.7451 3.86405 59.903 4.00862 60.0952C4.55276 60.8174 5.97286 62.7572 6.88646 64.5027C7.41404 65.5111 8.14793 66.3876 9.055 67.0322C10.3586 67.9583 12.3244 68.8501 14.6646 68.292C14.6646 68.292 21.8981 69.7967 22 71V63.6268Z" fill="white"/>
<path fill-rule="evenodd" clip-rule="evenodd" d="M22 63.6268C22 63.6268 15.6008 62.7583 15.6008 60.913C15.6008 60.913 14.627 51.6042 14.8358 47.7268C14.8358 47.7268 14.3489 45.2754 13.0964 47.3244C13.0964 47.3244 12.4007 54.6776 12.5051 54.7869C12.6095 54.8967 11.462 55.1528 11.2878 50.6164C11.2878 50.6164 10.7803 44.3229 9.25228 44.4285C9.25228 44.4285 8.90792 42.5827 7.37237 43.0874C7.37237 43.0874 6.20226 43.448 6.43016 46.7115C6.43016 46.7115 4.97041 44.504 4.14867 46.7115C4.14867 46.7115 4.21594 53.7235 5.6014 56.3861C5.6014 56.3861 6.2886 58.5176 6.34081 59.2689C6.34683 59.3555 6.24242 59.3961 6.19122 59.328C5.64708 58.602 3.43787 55.8624 1.44502 56.3861C1.44502 56.3861 -0.417317 57.3418 3.47753 59.6258C3.68033 59.7451 3.86405 59.903 4.00862 60.0952C4.55276 60.8174 5.97286 62.7572 6.88646 64.5027C7.41404 65.5111 8.14793 66.3876 9.055 67.0322C10.3586 67.9583 12.3244 68.8501 14.6646 68.292C14.6646 68.292 21.8981 69.7967 22 71V63.6268Z" stroke="#2B2220"/>
<path fill-rule="evenodd" clip-rule="evenodd" d="M8.24219 47.4124C8.24219 47.4124 9.63269 54.4471 9.56969 56.4153L8.24219 47.4124Z" fill="white"/>
<path d="M8.24219 47.4124C8.24219 47.4124 9.63269 54.4471 9.56969 56.4153" stroke="#2B2220" stroke-linecap="round" stroke-linejoin="round"/>
<path fill-rule="evenodd" clip-rule="evenodd" d="M10.1899 44.1217C10.1899 44.1217 11.1419 51.784 10.9569 53.8962L10.1899 44.1217Z" fill="white"/>
<path d="M10.1899 44.1217C10.1899 44.1217 11.1419 51.784 10.9569 53.8962" stroke="#2B2220" stroke-linecap="round" stroke-linejoin="round"/>
<path fill-rule="evenodd" clip-rule="evenodd" d="M67.1271 12.0697C67.3333 12.2824 67.5605 12.4721 67.848 12.5662C69.1727 12.9999 72.86 14.0263 76.3325 13.3446L78.7229 13.0035C78.8244 12.9887 78.9249 13.0004 79.0184 13.0403C79.2118 13.1231 79.6479 13.2924 80.5211 13.5619C80.5419 13.5686 80.5601 13.5752 80.5793 13.5839C81.0747 13.8054 88.2639 17.0849 88.0721 20.6018C88.0587 20.8483 88.2799 21.0437 88.5316 20.9915L91.2095 20.4382C91.6594 20.3451 91.8256 20.1748 91.8561 19.9585C92.1666 17.7794 93.1312 6.29037 79.5923 3.07828C79.5742 3.07419 79.5581 3.07061 79.5394 3.06805C79.004 2.98981 70.9106 1.97366 65.0397 11.4509C64.9115 11.658 65.114 11.9101 65.3577 11.8467C65.9215 11.7004 66.6899 11.6191 67.1271 12.0697Z" fill="#2B2220"/>
<path fill-rule="evenodd" clip-rule="evenodd" d="M67.1271 12.0697C67.3333 12.2824 67.5605 12.4721 67.848 12.5662C69.1727 12.9999 72.86 14.0263 76.3325 13.3446L78.7229 13.0035C78.8244 12.9887 78.9249 13.0004 79.0184 13.0403C79.2118 13.1231 79.6479 13.2924 80.5211 13.5619C80.5419 13.5686 80.5601 13.5752 80.5793 13.5839C81.0747 13.8054 88.2639 17.0849 88.0721 20.6018C88.0587 20.8483 88.2799 21.0437 88.5316 20.9915L91.2095 20.4382C91.6594 20.3451 91.8256 20.1748 91.8561 19.9585C92.1666 17.7794 93.1312 6.29037 79.5923 3.07828C79.5742 3.07419 79.5581 3.07061 79.5394 3.06805C79.004 2.98981 70.9106 1.97366 65.0397 11.4509C64.9115 11.658 65.114 11.9101 65.3577 11.8467C65.9215 11.7004 66.6899 11.6191 67.1271 12.0697Z" stroke="#2B2220"/>
<path fill-rule="evenodd" clip-rule="evenodd" d="M86.9205 33.0978C86.2567 34.1284 83.9768 37.3807 81.155 38.2209C80.9494 38.2825 80.9471 38.5283 81.1555 38.5818C82.6246 38.9613 86.2201 39.5742 89.8859 37.8018C89.9901 37.7512 90.0306 37.6352 89.9751 37.5435L87.3096 33.1035C87.2287 32.9684 87.0064 32.9646 86.9205 33.0978Z" fill="#2B2220"/>
<path fill-rule="evenodd" clip-rule="evenodd" d="M86.9205 33.0978C86.2567 34.1284 83.9768 37.3807 81.155 38.2209C80.9494 38.2825 80.9471 38.5283 81.1555 38.5818C82.6246 38.9613 86.2201 39.5742 89.8859 37.8018C89.9901 37.7512 90.0306 37.6352 89.9751 37.5435L87.3096 33.1035C87.2287 32.9684 87.0064 32.9646 86.9205 33.0978Z" stroke="#2B2220"/>
<path d="M74 100C74 100 75.7374 109.199 74.632 115.654C74.632 115.654 74.2336 117.773 74.2762 120.327C74.3017 121.849 74.4838 123.525 74.9998 125" stroke="#2B2220"/>
<path d="M75 120.827C75 120.827 78.0815 122.287 79.6372 116.723C79.6372 116.723 80.4535 105.55 79.6372 103" stroke="#2B2220"/>
<path d="M66 104.289C66 104.289 80.5726 107.58 95 100" stroke="#2B2220"/>
<path d="M70 52.5713C70 52.5713 82.6834 61.2456 91 51" stroke="#2B2220"/>
<path fill-rule="evenodd" clip-rule="evenodd" d="M69.8277 30.0074C70.3821 30.076 72.699 30.4245 72.9869 31.482C73.0592 31.7466 72.8223 32 72.5179 32H68.8191C68.5417 32 68.2838 31.8624 68.1658 31.6379C67.8967 31.1261 67.7203 30.2284 69.5943 30.0066C69.6718 29.9973 69.7506 29.9981 69.8277 30.0074Z" stroke="#2B2220"/>
<path d="M76 16.5381C76 16.5381 77.0327 15.0617 78 17" stroke="#2B2220" stroke-linecap="round" stroke-linejoin="round"/>
<path d="M65 16.5381C65 16.5381 66.0327 15.0617 67 17" stroke="#2B2220" stroke-linecap="round" stroke-linejoin="round"/>
<path fill-rule="evenodd" clip-rule="evenodd" d="M69.806 26.437C69.806 26.606 69.669 26.869 69.5 26.869C69.331 26.869 69.194 26.606 69.194 26.437C69.194 26.268 69.331 26.131 69.5 26.131C69.669 26.131 69.806 26.268 69.806 26.437Z" fill="#2B2220"/>
<path fill-rule="evenodd" clip-rule="evenodd" d="M69.806 26.437C69.806 26.606 69.669 26.869 69.5 26.869C69.331 26.869 69.194 26.606 69.194 26.437C69.194 26.268 69.331 26.131 69.5 26.131C69.669 26.131 69.806 26.268 69.806 26.437Z" stroke="#2B2220" stroke-width="0.25"/>
<path fill-rule="evenodd" clip-rule="evenodd" d="M70.806 26.437C70.806 26.606 70.669 26.869 70.5 26.869C70.331 26.869 70.194 26.606 70.194 26.437C70.194 26.268 70.331 26.131 70.5 26.131C70.669 26.131 70.806 26.268 70.806 26.437Z" fill="#2B2220"/>
<path fill-rule="evenodd" clip-rule="evenodd" d="M70.806 26.437C70.806 26.606 70.669 26.869 70.5 26.869C70.331 26.869 70.194 26.606 70.194 26.437C70.194 26.268 70.331 26.131 70.5 26.131C70.669 26.131 70.806 26.268 70.806 26.437Z" stroke="#2B2220" stroke-width="0.25"/>
</svg>
