<svg width="100" height="199" viewBox="0 0 100 199" fill="none" xmlns="http://www.w3.org/2000/svg">
<path fill-rule="evenodd" clip-rule="evenodd" d="M57.6494 54.48C57.6494 54.48 49.792 48.6886 54.5063 36.8813C54.5063 36.8813 54.4462 20.7513 72.407 20.083C72.407 20.083 85.2508 18.5187 84.9251 28.9747L86.4743 36.6677C86.4743 36.6677 86.1615 38.2179 87.9576 39.1087C89.7538 40.0002 89.1255 43.9907 86.8634 44.9873L86.0742 48.4295C86.0742 48.4295 83.3416 63.6898 82.2674 66C82.2674 66 70.0899 61.9133 69.7312 58.0036C69.7312 58.0036 59.3893 56.263 57.6494 54.48Z" fill="white"/>
<path fill-rule="evenodd" clip-rule="evenodd" d="M57.6494 54.48C57.6494 54.48 49.792 48.6886 54.5063 36.8813C54.5063 36.8813 54.4462 20.7513 72.407 20.083C72.407 20.083 85.2508 18.5187 84.9251 28.9747L86.4743 36.6677C86.4743 36.6677 86.1615 38.2179 87.9576 39.1087C89.7538 40.0002 89.1255 43.9907 86.8634 44.9873L86.0742 48.4295C86.0742 48.4295 83.3416 63.6898 82.2674 66C82.2674 66 70.0899 61.9133 69.7312 58.0036C69.7312 58.0036 59.3893 56.263 57.6494 54.48Z" stroke="#2B2220"/>
<path d="M59 32.5381C59 32.5381 61.0654 31.0617 63 33" stroke="#2B2220" stroke-linecap="round" stroke-linejoin="round"/>
<path fill-rule="evenodd" clip-rule="evenodd" d="M39.3798 109.762V115.096C39.3798 115.143 39.3623 115.183 39.3267 115.213C38.958 115.519 36.811 117.445 37.313 120.53C37.324 120.597 37.2949 120.662 37.2341 120.691C36.6939 120.956 34.1291 122.375 34.3393 125.384C34.3432 125.449 34.3096 125.511 34.2488 125.536C32.2971 126.353 2.26027 139.157 6.38926 152.006C6.38926 152.006 14.2261 180.45 13.6821 182.523C13.6776 182.541 13.6705 182.554 13.6601 182.569C13.4686 182.862 11.4659 186 13.675 186C13.675 186 24.6854 184.198 27.5096 185.887C27.5996 185.941 27.7108 185.902 27.7406 185.802C27.9223 185.179 28.4224 183.219 28.011 181.688C28.0077 181.676 28.0058 181.668 28.0058 181.656C28.02 181 28.4677 159.393 27.5886 157C27.5549 156.908 27.6067 156.813 27.7031 156.795C28.8985 156.571 35.0121 155.281 35.8304 152.135C35.8537 152.044 35.9442 151.992 36.0328 152.027C36.6752 152.273 39.1954 152.915 43.0398 149.845C43.0592 149.83 43.0825 149.819 43.1064 149.815L53.3367 147.875C53.4415 147.855 53.5353 147.943 53.5204 148.048C53.3063 149.571 52.2072 158.742 56.4831 160.848C56.5076 160.86 56.5277 160.878 56.5419 160.902L68.7006 180.617C68.7264 180.659 68.7316 180.709 68.7128 180.755C68.5511 181.154 67.8007 183.119 68.7419 183.119C68.7419 183.119 81.0901 182.173 83.7772 183.283C83.9033 183.335 84.034 183.228 83.992 183.098C83.6038 181.891 82.27 178.082 80.6858 177.41C80.6405 177.39 80.6088 177.355 80.5991 177.306C80.3113 175.893 76.0335 154.95 74.853 154.782C73.6304 154.608 76.7735 150.783 75.3763 149.218C73.9881 147.664 78.98 148.856 78.0142 143.752C78.0039 143.696 78.022 143.637 78.0679 143.602C78.8979 142.967 86.4676 136.523 79.0615 117.799C79.0499 117.769 79.046 117.741 79.0537 117.71C79.1967 117.135 80.689 110.906 79.0738 107.899C79.0544 107.863 79.0253 107.837 78.9858 107.824C77.7425 107.415 56.5322 100.662 39.4645 109.622C39.4127 109.65 39.3798 109.704 39.3798 109.762Z" fill="#FFCCF9"/>
<path fill-rule="evenodd" clip-rule="evenodd" d="M39.3798 109.762V115.096C39.3798 115.143 39.3623 115.183 39.3267 115.213C38.958 115.519 36.811 117.445 37.313 120.53C37.324 120.597 37.2949 120.662 37.2341 120.691C36.6939 120.956 34.1291 122.375 34.3393 125.384C34.3432 125.449 34.3096 125.511 34.2488 125.536C32.2971 126.353 2.26027 139.157 6.38926 152.006C6.38926 152.006 14.2261 180.45 13.6821 182.523C13.6776 182.541 13.6705 182.554 13.6601 182.569C13.4686 182.862 11.4659 186 13.675 186C13.675 186 24.6854 184.198 27.5096 185.887C27.5996 185.941 27.7108 185.902 27.7406 185.802C27.9224 185.179 28.4224 183.219 28.011 181.688C28.0077 181.676 28.0058 181.668 28.0058 181.656C28.02 181 28.4677 159.393 27.5886 157C27.5549 156.908 27.6067 156.813 27.7031 156.795C28.8985 156.571 35.0121 155.281 35.8304 152.135C35.8537 152.044 35.9442 151.992 36.0328 152.027C36.6752 152.273 39.1954 152.915 43.0398 149.845C43.0592 149.83 43.0825 149.819 43.1064 149.815L53.3367 147.875C53.4415 147.855 53.5353 147.943 53.5204 148.048C53.3063 149.571 52.2072 158.742 56.4831 160.848C56.5076 160.86 56.5277 160.878 56.5419 160.902L68.7006 180.617C68.7264 180.659 68.7316 180.709 68.7128 180.755C68.5511 181.154 67.8007 183.119 68.7419 183.119C68.7419 183.119 81.0901 182.173 83.7772 183.283C83.9033 183.335 84.034 183.228 83.992 183.098C83.6038 181.891 82.27 178.082 80.6858 177.41C80.6405 177.39 80.6088 177.355 80.5991 177.306C80.3113 175.893 76.0335 154.95 74.853 154.782C73.6304 154.608 76.7735 150.783 75.3763 149.218C73.9881 147.664 78.98 148.856 78.0142 143.752C78.0039 143.696 78.022 143.637 78.0679 143.602C78.8978 142.967 86.4676 136.523 79.0615 117.799C79.0499 117.769 79.046 117.741 79.0537 117.71C79.1967 117.135 80.689 110.906 79.0738 107.899C79.0544 107.863 79.0253 107.837 78.9858 107.824C77.7425 107.415 56.5322 100.662 39.4645 109.622C39.4127 109.65 39.3798 109.704 39.3798 109.762Z" stroke="#231F20"/>
<path fill-rule="evenodd" clip-rule="evenodd" d="M38.979 108.51C38.4044 106.799 37.6196 101.223 41.959 85.4309C41.9654 85.4091 41.9692 85.3892 41.9737 85.3675C42.1145 84.5522 44.8392 68.1363 35.5447 64.3706C35.4438 64.3302 35.3544 64.27 35.2831 64.1874C34.3478 63.1109 27.5428 55.1555 26.5966 50.5861C26.5767 50.4907 26.5426 50.4087 26.4861 50.3299C25.7571 49.3187 20.498 41.5324 24.4684 32.4551C24.4832 32.4218 24.4954 32.3872 24.5037 32.3513L27.3969 20.5452C27.5036 20.1109 27.9786 19.8791 28.388 20.0642C30.3729 20.9595 35.6096 22.9698 37.8175 20.4055C38.1306 20.0418 38.72 20.1039 38.961 20.5183C39.5736 21.5705 40.0075 23.5635 37.1953 26.1296C37.0462 26.2654 36.9549 26.4582 36.9549 26.6586V38.4565C36.9549 38.6525 37.0353 38.8388 37.1773 38.974C39.0221 40.723 51.9554 52.786 61.0854 55.9061C61.1876 55.9413 61.2892 55.9522 61.3965 55.9407C62.8794 55.7806 74.6518 54.795 82.2604 62.7695C82.3124 62.8239 82.3542 62.8835 82.3883 62.9501C82.7052 63.5828 84.3217 67.0642 82.7052 69.3089C82.5098 69.581 82.5162 69.9448 82.7367 70.1971C85.2358 73.0502 98.583 88.3973 98.2963 90.3954C98.2963 90.3954 102.867 98.1971 88.71 104.516C88.6753 104.531 88.6412 104.549 88.6103 104.571L84.3847 107.384C84.0351 107.617 83.5607 107.503 83.3582 107.135C82.2803 105.177 79.2882 99.4946 79.3942 96.9028C79.4051 96.6338 79.5665 96.3994 79.8114 96.286C80.3841 96.0228 81.5629 95.6117 82.8434 95.9332C83.2978 96.0472 83.7394 95.7129 83.7394 95.246C83.7394 94.8079 83.3492 94.4807 82.9141 94.5402C82.09 94.653 80.8193 94.6715 79.9046 93.9587C79.4585 93.611 78.808 93.8307 78.7244 94.3885C78.2893 97.3075 77.5784 103.17 78.333 106.293C78.4532 106.792 78.0476 107.254 77.5385 107.177C72.6791 106.44 53.6909 104.03 39.9008 108.957C39.5183 109.094 39.1082 108.894 38.979 108.51Z" fill="white"/>
<path fill-rule="evenodd" clip-rule="evenodd" d="M38.979 108.51C38.4044 106.799 37.6196 101.223 41.959 85.4309C41.9654 85.4091 41.9692 85.3892 41.9737 85.3675C42.1145 84.5522 44.8392 68.1363 35.5447 64.3706C35.4438 64.3302 35.3544 64.27 35.2831 64.1874C34.3478 63.1109 27.5428 55.1555 26.5966 50.5861C26.5767 50.4907 26.5426 50.4087 26.4861 50.3299C25.7571 49.3187 20.498 41.5324 24.4684 32.4551C24.4832 32.4218 24.4954 32.3872 24.5037 32.3513L27.3969 20.5452C27.5036 20.1109 27.9786 19.8791 28.388 20.0642C30.3729 20.9595 35.6096 22.9698 37.8175 20.4055C38.1306 20.0418 38.72 20.1039 38.961 20.5183C39.5736 21.5705 40.0075 23.5635 37.1953 26.1296C37.0462 26.2654 36.9549 26.4582 36.9549 26.6586V38.4565C36.9549 38.6525 37.0353 38.8388 37.1773 38.974C39.0221 40.723 51.9554 52.786 61.0854 55.9061C61.1876 55.9413 61.2892 55.9522 61.3965 55.9407C62.8794 55.7806 74.6518 54.795 82.2604 62.7695C82.3124 62.8239 82.3542 62.8835 82.3883 62.9501C82.7052 63.5828 84.3217 67.0642 82.7052 69.3089C82.5098 69.581 82.5162 69.9448 82.7367 70.1971C85.2358 73.0502 98.583 88.3973 98.2963 90.3954C98.2963 90.3954 102.867 98.1971 88.71 104.516C88.6753 104.531 88.6412 104.549 88.6103 104.571L84.3847 107.384C84.0351 107.617 83.5607 107.503 83.3582 107.135C82.2803 105.177 79.2882 99.4946 79.3942 96.9028C79.4051 96.6338 79.5665 96.3994 79.8114 96.286C80.3841 96.0228 81.5629 95.6117 82.8434 95.9332C83.2978 96.0472 83.7394 95.7129 83.7394 95.246C83.7394 94.8079 83.3492 94.4807 82.9141 94.5402C82.09 94.653 80.8193 94.6715 79.9046 93.9587C79.4585 93.611 78.808 93.8307 78.7244 94.3885C78.2893 97.3075 77.5784 103.17 78.333 106.293C78.4532 106.792 78.0476 107.254 77.5385 107.177C72.6791 106.44 53.6909 104.03 39.9008 108.957C39.5183 109.094 39.1082 108.894 38.979 108.51Z" stroke="#2B2220"/>
<path fill-rule="evenodd" clip-rule="evenodd" d="M80.1273 96.7548C80.1273 96.7548 76.288 97.599 74.7434 97.2584C73.1994 96.9179 70.2386 96.0703 70.2386 96.0703C70.2386 96.0703 68.3075 95.4835 66.1196 97.7L61.6787 102.98C61.6787 102.98 60.456 105.326 61.2928 108.39C61.2928 108.39 61.8227 110.142 64.9575 109.762C64.9575 109.762 66.0824 111.868 67.0705 111.971C67.0705 111.971 73.1016 112.695 78.2816 106.863L80.3281 106.622L82.4768 106.119C82.4768 106.119 87.1491 100.645 80.1273 96.7548Z" fill="white"/>
<path fill-rule="evenodd" clip-rule="evenodd" d="M80.1273 96.7548C80.1273 96.7548 76.288 97.599 74.7434 97.2584C73.1994 96.9179 70.2386 96.0703 70.2386 96.0703C70.2386 96.0703 68.3075 95.4835 66.1196 97.7L61.6787 102.98C61.6787 102.98 60.456 105.326 61.2928 108.39C61.2928 108.39 61.8227 110.142 64.9575 109.762C64.9575 109.762 66.0824 111.868 67.0705 111.971C67.0705 111.971 73.1016 112.695 78.2816 106.863L80.3281 106.622L82.4768 106.119C82.4768 106.119 87.1491 100.645 80.1273 96.7548Z" stroke="#2B2220"/>
<path d="M69.1309 99V101.091C69.1309 101.091 70.9654 101.65 71 103.464C71 103.464 68.8539 104.858 66.6386 103.15C66.6386 103.15 65.6691 102.138 66.1192 99.9411" stroke="#2B2220" stroke-linecap="round" stroke-linejoin="round"/>
<path d="M68.9974 103.549C68.9974 103.549 69.1652 106.27 66.8132 105.978C66.8132 105.978 64.1679 105.189 64 102.739V101" stroke="#2B2220" stroke-linecap="round" stroke-linejoin="round"/>
<path d="M67 106.582C67 106.582 66.661 108.331 65.2006 107.944C65.2006 107.944 63 107.372 63 106.138V104" stroke="#2B2220" stroke-linecap="round" stroke-linejoin="round"/>
<path d="M65.8971 108C65.8971 108 66.4481 108.881 65 109" stroke="#2B2220" stroke-linecap="round" stroke-linejoin="round"/>
<path d="M71 103C71 103 71.9202 105.049 73 104.999" stroke="#2B2220" stroke-linecap="round" stroke-linejoin="round"/>
<path d="M68.2549 106C68.2549 106 69.3579 108.397 68.2549 109" stroke="#2B2220" stroke-linecap="round" stroke-linejoin="round"/>
<path fill-rule="evenodd" clip-rule="evenodd" d="M60.8954 30.6431C61.0198 30.4829 61.1746 30.3539 61.3552 30.2618C62.6939 29.584 68.5562 26.7739 70.3553 28.5833C70.3553 28.5833 74.5113 31.435 76.1563 30.062C76.6883 29.6178 77.4312 29.5211 77.9716 29.9543C79.191 30.9311 80.8031 33.0226 80.5374 37.1623C80.5355 37.2038 80.531 37.244 80.5252 37.2855C80.4162 38.0443 79.3477 46.0129 82.795 44.2794C82.795 44.2794 85.5408 41.5866 85.9773 44.5252C85.9773 44.5252 86.6699 47.7212 81.6852 49.7784C81.6852 49.7784 80.9417 49.4865 80.6032 50.0248C80.4155 50.3238 80.3149 50.6785 80.1421 50.8264C80.0589 50.8977 79.9964 50.9879 79.9661 51.0942C79.7713 51.7817 79.1007 54.3409 79.8178 54.6106C79.8178 54.6106 82.361 57.3514 84.0447 55.134C84.3104 54.7845 84.6464 54.4913 85.0468 54.3156L88.5819 52.761C88.8353 52.6501 89.0468 52.4666 89.1938 52.2318C90.2494 50.5436 94.4777 43.3779 92.4632 39.9289C92.3374 39.7136 92.2568 39.4763 92.2723 39.2272C92.3742 37.578 92.6496 31.0504 90.6841 30.171C88.431 29.1644 91.9344 19.0939 77.041 15.5697C77.041 15.5697 65.3023 12.3289 56.3125 21.3067C56.1977 21.4208 56.1042 21.5544 56.0345 21.7016C55.2433 23.3872 50.258 34.2866 51.291 39.3563C51.3484 39.6377 51.3562 39.9257 51.2781 40.202C51.1124 40.7908 50.7223 41.7682 49.9053 42.0743C49.1759 42.3474 48.7981 43.0549 49.1102 43.7709C49.755 45.2554 50.7816 47.2867 52.0042 48.5111C52.8271 49.3354 54.2361 48.7738 54.3186 47.6083C54.5372 44.5401 55.1904 38.6422 57.0785 35.5746C57.1101 35.5234 57.1443 35.476 57.1811 35.428L60.8954 30.6431Z" fill="#2B2220"/>
<path fill-rule="evenodd" clip-rule="evenodd" d="M60.8954 30.6431C61.0198 30.4829 61.1746 30.3539 61.3552 30.2618C62.6939 29.584 68.5562 26.7739 70.3553 28.5833C70.3553 28.5833 74.5113 31.435 76.1563 30.062C76.6883 29.6178 77.4312 29.5211 77.9716 29.9543C79.191 30.9311 80.8031 33.0226 80.5374 37.1623C80.5355 37.2038 80.531 37.244 80.5252 37.2855C80.4162 38.0443 79.3477 46.0129 82.795 44.2794C82.795 44.2794 85.5408 41.5866 85.9773 44.5252C85.9773 44.5252 86.6699 47.7212 81.6852 49.7784C81.6852 49.7784 80.9417 49.4865 80.6032 50.0248C80.4155 50.3238 80.3149 50.6785 80.1421 50.8264C80.0589 50.8977 79.9964 50.9879 79.9661 51.0942C79.7713 51.7817 79.1007 54.3409 79.8178 54.6106C79.8178 54.6106 82.361 57.3514 84.0447 55.134C84.3104 54.7845 84.6464 54.4913 85.0468 54.3156L88.5819 52.761C88.8353 52.6501 89.0468 52.4666 89.1938 52.2318C90.2494 50.5436 94.4777 43.3779 92.4632 39.9289C92.3374 39.7136 92.2568 39.4763 92.2723 39.2272C92.3742 37.578 92.6496 31.0504 90.6841 30.171C88.431 29.1644 91.9344 19.0939 77.041 15.5697C77.041 15.5697 65.3023 12.3289 56.3125 21.3067C56.1977 21.4208 56.1042 21.5544 56.0345 21.7016C55.2433 23.3872 50.258 34.2866 51.291 39.3563C51.3484 39.6377 51.3562 39.9257 51.2781 40.202C51.1124 40.7908 50.7223 41.7682 49.9053 42.0743C49.1759 42.3474 48.7981 43.0549 49.1102 43.7709C49.755 45.2554 50.7816 47.2867 52.0042 48.5111C52.8271 49.3354 54.2361 48.7738 54.3186 47.6083C54.5372 44.5401 55.1904 38.6422 57.0785 35.5746C57.1101 35.5234 57.1443 35.476 57.1811 35.428L60.8954 30.6431Z" stroke="#2B2220"/>
<path fill-rule="evenodd" clip-rule="evenodd" d="M79.683 38.2851C79.683 38.2851 71.1876 34.0022 66.8335 37.1633C66.5867 37.3423 66.2722 37.3828 65.9796 37.3052C65.3622 37.1428 64.2531 36.9233 63.1813 37.0751C62.9558 37.107 62.7296 37.0831 62.5278 36.975C61.5354 36.4466 58.052 34.996 53.4969 37.6917C53.1856 37.8767 53 38.2261 53 38.596V38.7584C53 38.7584 53.9867 38.962 54.3038 39.6985C54.3476 39.8 54.3605 39.912 54.3618 40.0227C54.3747 40.7315 54.5461 43.6844 56.4821 45.2457C56.9719 45.6408 57.5938 45.8192 58.2151 45.8192H59.6387C60.0557 45.7264 60.3212 45.6315 60.5087 45.3219C61.315 43.9893 63.2426 40.3317 63.4945 39.2252C63.7324 38.1803 64.7236 38.4223 64.9743 38.7956C65.1193 39.011 65.1321 39.2921 65.1998 39.5441C65.5356 40.8084 66.8638 45.1456 69.5745 46.5372C69.6222 46.5617 69.6718 46.5836 69.7221 46.6008C70.3317 46.8156 74.3648 48.0673 76.9427 44.6411C77.0394 44.5118 77.1025 44.358 77.1309 44.1969C77.2798 43.3383 77.8785 40.4219 79.1842 39.9578L79.2879 39.9226C79.8228 39.7377 80.147 39.129 79.9337 38.592C79.8783 38.4528 79.7983 38.3394 79.683 38.2851Z" fill="#CD36FF"/>
<path fill-rule="evenodd" clip-rule="evenodd" d="M79.683 38.2851C79.683 38.2851 71.1876 34.0022 66.8335 37.1633C66.5867 37.3423 66.2722 37.3828 65.9796 37.3052C65.3622 37.1428 64.2531 36.9233 63.1813 37.0751C62.9558 37.107 62.7296 37.0831 62.5278 36.975C61.5354 36.4466 58.052 34.996 53.4969 37.6917C53.1856 37.8767 53 38.2261 53 38.596V38.7584C53 38.7584 53.9867 38.962 54.3038 39.6985C54.3476 39.8 54.3605 39.912 54.3618 40.0227C54.3747 40.7315 54.5461 43.6844 56.4821 45.2457C56.9719 45.6408 57.5938 45.8192 58.2151 45.8192H59.6387C60.0557 45.7264 60.3212 45.6315 60.5087 45.3219C61.315 43.9893 63.2426 40.3317 63.4945 39.2252C63.7324 38.1803 64.7236 38.4223 64.9743 38.7956C65.1193 39.011 65.1321 39.2921 65.1998 39.5441C65.5356 40.8084 66.8638 45.1456 69.5745 46.5372C69.6222 46.5617 69.6718 46.5836 69.7221 46.6008C70.3317 46.8156 74.3648 48.0673 76.9427 44.6411C77.0394 44.5118 77.1025 44.358 77.1309 44.1969C77.2798 43.3383 77.8785 40.4219 79.1842 39.9578L79.2879 39.9226C79.8228 39.7377 80.147 39.129 79.9337 38.592C79.8783 38.4528 79.7983 38.3394 79.683 38.2851Z" stroke="#2B2220"/>
<path fill-rule="evenodd" clip-rule="evenodd" d="M27.1232 18.9481C27.1232 18.9481 28.1907 15.2882 27.9455 13.7773C27.7002 12.2658 27.038 9.35819 27.038 9.35819C27.038 9.35819 26.5724 7.45951 28.9015 5.47317L34.4036 1.48537C34.4036 1.48537 36.8042 0.43797 39.7916 1.42042C39.7916 1.42042 41.4971 2.03208 40.9326 5.03807C40.9326 5.03807 42.9528 6.24438 42.9961 7.20475C42.9961 7.20475 43.3528 13.0717 37.2579 17.7418L36.8953 19.7042L36.2671 21.7504C36.2671 21.7504 30.5585 25.9513 27.1232 18.9481Z" fill="white"/>
<path fill-rule="evenodd" clip-rule="evenodd" d="M27.1232 18.9481C27.1232 18.9481 28.1907 15.2882 27.9455 13.7773C27.7002 12.2658 27.038 9.35819 27.038 9.35819C27.038 9.35819 26.5724 7.45951 28.9015 5.47317L34.4036 1.48537C34.4036 1.48537 36.8042 0.43797 39.7916 1.42042C39.7916 1.42042 41.4971 2.03208 40.9326 5.03807C40.9326 5.03807 42.9528 6.24438 42.9961 7.20475C42.9961 7.20475 43.3528 13.0717 37.2579 17.7418L36.8953 19.7042L36.2671 21.7504C36.2671 21.7504 30.5585 25.9513 27.1232 18.9481Z" stroke="#2B2220"/>
<path d="M30 7.92862L32.0865 8.04954C32.0865 8.04954 32.5331 9.86191 34.3395 10C34.3395 10 35.8592 7.99732 34.2883 5.7487C34.2883 5.7487 33.3382 4.74976 31.1201 5.05961" stroke="#2B2220" stroke-linecap="round" stroke-linejoin="round"/>
<path d="M35.3385 8.98456C35.3385 8.98456 38.1512 9.30615 37.9936 7.01389C37.9936 7.01389 37.3372 4.40777 34.8035 4.10162L33 4" stroke="#2B2220" stroke-linecap="round" stroke-linejoin="round"/>
<path d="M37.4555 6C37.4555 6 39.2836 5.7916 38.9621 4.36668C38.9621 4.36668 38.4894 2.22167 37.2114 2.1407L35 2" stroke="#2B2220" stroke-linecap="round" stroke-linejoin="round"/>
<path d="M39 4.85714C39 4.85714 40.652 5.51712 41 4" stroke="#2B2220" stroke-linecap="round" stroke-linejoin="round"/>
<path d="M35 10C35 10 37.1229 10.9785 36.9944 12" stroke="#2B2220" stroke-linecap="round" stroke-linejoin="round"/>
<path d="M37 8.17156C37 8.17156 39.3492 9.46856 40 8.41756" stroke="#2B2220" stroke-linecap="round" stroke-linejoin="round"/>
<path d="M53 148C53 148 60.0769 142.582 69 143.026" stroke="#2B2220"/>
<path fill-rule="evenodd" clip-rule="evenodd" d="M52.6054 118.047C52.6054 118.047 64.3018 115.691 66 118.047V130.625C66 130.625 63.3849 136 59.3027 136C59.3027 136 52.5593 134.326 51 130.184C51 130.184 51.5016 118.251 52.6054 118.047Z" fill="white"/>
<path fill-rule="evenodd" clip-rule="evenodd" d="M52.6054 118.047C52.6054 118.047 64.3018 115.691 66 118.047V130.625C66 130.625 63.3849 136 59.3027 136C59.3027 136 52.5593 134.326 51 130.184C51 130.184 51.5016 118.251 52.6054 118.047Z" stroke="#2B2220"/>
<path d="M71.2221 119C71.2221 119 73.6182 130.102 70 137" stroke="#2B2220"/>
<path fill-rule="evenodd" clip-rule="evenodd" d="M14.2261 179.147C13.437 179.676 12.4954 180.614 11.9254 182.24C11.9254 182.24 5.86011 180.372 1.45116 183.974C1.45116 183.974 -2.31676 191.978 11.9254 195.445C11.9254 195.445 24.8321 201.849 29.6421 194.379C29.6421 194.379 31.5123 183.84 26.7023 180.505C26.7023 180.505 22.026 180.505 19.8891 184.107C19.8891 184.107 15.7827 186.098 15.5955 179.873C15.5747 179.181 14.8013 178.761 14.2261 179.147Z" fill="white"/>
<path fill-rule="evenodd" clip-rule="evenodd" d="M14.2261 179.147C13.437 179.676 12.4954 180.614 11.9254 182.24C11.9254 182.24 5.86011 180.372 1.45116 183.974C1.45116 183.974 -2.31676 191.978 11.9254 195.445C11.9254 195.445 24.8321 201.849 29.6421 194.379C29.6421 194.379 31.5123 183.84 26.7023 180.505C26.7023 180.505 22.026 180.505 19.8891 184.107C19.8891 184.107 15.7827 186.098 15.5955 179.873C15.5747 179.181 14.8013 178.761 14.2261 179.147Z" stroke="#2B2220"/>
<path fill-rule="evenodd" clip-rule="evenodd" d="M70.2261 176.147C69.437 176.676 68.4954 177.614 67.9254 179.239C67.9254 179.239 61.8601 177.372 57.4512 180.974C57.4512 180.974 53.6832 188.977 67.9254 192.446C67.9254 192.446 80.8321 198.849 85.6421 191.379C85.6421 191.379 87.5123 180.84 82.7023 177.505C82.7023 177.505 78.026 177.505 75.8891 181.107C75.8891 181.107 71.7827 183.098 71.5955 176.872C71.5747 176.181 70.8013 175.761 70.2261 176.147Z" fill="white"/>
<path fill-rule="evenodd" clip-rule="evenodd" d="M70.2261 176.147C69.437 176.676 68.4954 177.614 67.9254 179.239C67.9254 179.239 61.8601 177.372 57.4512 180.974C57.4512 180.974 53.6832 188.977 67.9254 192.446C67.9254 192.446 80.8321 198.849 85.6421 191.379C85.6421 191.379 87.5123 180.84 82.7023 177.505C82.7023 177.505 78.026 177.505 75.8891 181.107C75.8891 181.107 71.7827 183.098 71.5955 176.872C71.5747 176.181 70.8013 175.761 70.2261 176.147Z" stroke="#2B2220"/>
<path fill-rule="evenodd" clip-rule="evenodd" d="M80.4667 137.737C80.4667 137.737 75.1555 138.369 76.3842 131.893C76.3842 131.893 77.3973 123.363 76.1992 120.993C76.1992 120.993 79.363 119.895 79.7042 120.993" fill="white"/>
<path d="M80.4667 137.737C80.4667 137.737 75.1555 138.369 76.3842 131.893C76.3842 131.893 77.3973 123.363 76.1992 120.993C76.1992 120.993 79.363 119.895 79.7042 120.993" stroke="#2B2220"/>
<path fill-rule="evenodd" clip-rule="evenodd" d="M63.5588 48.0112C64.335 48.1141 67.5787 48.6362 67.9817 50.223C68.0829 50.62 67.7506 51 67.325 51H62.1461C61.7583 51 61.3974 50.793 61.2322 50.4568C60.8554 49.6886 60.6084 48.3427 63.232 48.0095C63.3399 47.996 63.4509 47.9972 63.5588 48.0112Z" stroke="#2B2220"/>
<path d="M65 60C65 60 78.3099 62.4491 80 68" stroke="#2B2220"/>
<path d="M29 25C29 25 32.6265 28.5959 35 26.1444" stroke="#2B2220"/>
<path d="M86.9895 104C86.9895 104 87.2641 101.323 85 98" stroke="#2B2220"/>
<path d="M72 32.5381C72 32.5381 74.0654 31.0617 76 33" stroke="#2B2220" stroke-linecap="round" stroke-linejoin="round"/>
<path fill-rule="evenodd" clip-rule="evenodd" d="M64.806 44.4365C64.806 44.6055 64.669 44.8695 64.5 44.8695C64.331 44.8695 64.194 44.6055 64.194 44.4365C64.194 44.2675 64.331 44.1305 64.5 44.1305C64.669 44.1305 64.806 44.2675 64.806 44.4365Z" fill="#2B2220"/>
<path fill-rule="evenodd" clip-rule="evenodd" d="M64.806 44.4365C64.806 44.6055 64.669 44.8695 64.5 44.8695C64.331 44.8695 64.194 44.6055 64.194 44.4365C64.194 44.2675 64.331 44.1305 64.5 44.1305C64.669 44.1305 64.806 44.2675 64.806 44.4365Z" stroke="#2B2220" stroke-width="0.25"/>
<path fill-rule="evenodd" clip-rule="evenodd" d="M66.806 44.4365C66.806 44.6055 66.669 44.8695 66.5 44.8695C66.331 44.8695 66.194 44.6055 66.194 44.4365C66.194 44.2675 66.331 44.1305 66.5 44.1305C66.669 44.1305 66.806 44.2675 66.806 44.4365Z" fill="#2B2220"/>
<path fill-rule="evenodd" clip-rule="evenodd" d="M66.806 44.4365C66.806 44.6055 66.669 44.8695 66.5 44.8695C66.331 44.8695 66.194 44.6055 66.194 44.4365C66.194 44.2675 66.331 44.1305 66.5 44.1305C66.669 44.1305 66.806 44.2675 66.806 44.4365Z" stroke="#2B2220" stroke-width="0.25"/>
</svg>
