<svg width="191" height="197" viewBox="0 0 191 197" fill="none" xmlns="http://www.w3.org/2000/svg">
<path fill-rule="evenodd" clip-rule="evenodd" d="M122.179 151.837C122.179 151.837 119.832 155.855 125.151 156.485C125.151 156.485 131.566 158.849 133.052 160.425C133.052 160.425 140.484 162.315 141.657 159.479C141.657 159.479 144.083 156.406 136.025 152.31L131.832 147.85C131.832 147.85 126.305 146.915 122.179 151.837" fill="white"/>
<path fill-rule="evenodd" clip-rule="evenodd" d="M122.179 151.837C122.179 151.837 119.832 155.855 125.151 156.485C125.151 156.485 131.566 158.849 133.052 160.425C133.052 160.425 140.484 162.315 141.657 159.479C141.657 159.479 144.083 156.406 136.025 152.31L131.832 147.85C131.832 147.85 126.305 146.915 122.179 151.837Z" stroke="#2B2220"/>
<path fill-rule="evenodd" clip-rule="evenodd" d="M94.5172 26.6421C94.5172 26.6421 95.486 28.172 78.4276 28.677C78.4276 28.677 61.1166 30.0659 58.337 37.263C58.337 37.263 55.3042 45.3437 67.4344 46.48C67.4344 46.48 70.9868 47.2461 73.939 46.48C73.939 46.48 80.2211 47.1842 79.2146 55.773L78.0529 68.3857C78.0529 68.3857 77.0464 77.903 79.2918 80.3019C79.2918 80.3019 81.1503 83.01 80.8405 87.6526C80.8405 87.6526 110.498 86.0275 118.474 82.4681C118.474 82.4681 123.662 80.9209 122.5 77.903C122.5 77.903 121.339 75.2722 120.487 75.1174C120.487 75.1174 123.275 73.2604 115.686 59.8742C115.686 59.8742 114.447 54.6901 114.68 48.2675C114.68 48.2675 122.191 47.5709 128.696 48.0352C128.696 48.0352 138.607 49.0413 139.149 40.994C139.149 40.994 140.388 37.7442 136.671 34.8038H128.153L121.184 35.0361L109.182 32.3277L107.401 32.56C107.401 32.56 105.465 37.5122 100.044 36.5837C100.044 36.5837 87.8028 35.3061 94.5172 26.6421" fill="#FFCCF9"/>
<path fill-rule="evenodd" clip-rule="evenodd" d="M94.5172 26.6421C94.5172 26.6421 95.486 28.172 78.4276 28.677C78.4276 28.677 61.1166 30.0659 58.337 37.263C58.337 37.263 55.3042 45.3437 67.4344 46.48C67.4344 46.48 70.9868 47.2461 73.939 46.48C73.939 46.48 80.2211 47.1842 79.2146 55.773L78.0529 68.3857C78.0529 68.3857 77.0464 77.903 79.2918 80.3019C79.2918 80.3019 81.1503 83.01 80.8405 87.6526C80.8405 87.6526 110.498 86.0275 118.474 82.4681C118.474 82.4681 123.662 80.9209 122.5 77.903C122.5 77.903 121.339 75.2722 120.487 75.1174C120.487 75.1174 123.275 73.2604 115.686 59.8742C115.686 59.8742 114.447 54.6901 114.68 48.2675C114.68 48.2675 122.191 47.5709 128.696 48.0352C128.696 48.0352 138.607 49.0413 139.149 40.994C139.149 40.994 140.388 37.7442 136.671 34.8038H128.153L121.184 35.0361L109.182 32.3277L107.401 32.56C107.401 32.56 105.465 37.5122 100.044 36.5837C100.044 36.5837 87.8028 35.3061 94.5172 26.6421Z" stroke="#231F20"/>
<path fill-rule="evenodd" clip-rule="evenodd" d="M121.022 89.5752C122.325 90.2265 121.836 93.8086 121.836 93.8086L130.469 115.302C134.052 120.838 132.749 129.793 132.749 129.793C132.26 134.352 133.204 144.452 133.204 144.452C137.079 148.039 133.204 151.196 133.204 151.196C125.597 149.618 121.721 152.2 121.721 152.2C119.855 152.2 119.227 148.336 119.227 148.336C121.038 145.62 120.359 142.224 120.359 142.224L116.963 130C115.785 127.646 115.755 126.057 115.879 125.233C115.954 124.736 115.898 124.227 115.68 123.774C106.676 104.972 99.526 103.224 99.526 103.224C99.526 103.224 93.5188 102.822 86.2015 119.088C85.9291 119.694 85.8369 120.362 85.9097 121.022C86.0049 121.883 85.9119 123.419 84.8056 125.631L81.4089 137.855C81.4089 137.855 80.7978 140.909 82.2809 143.542C82.4535 143.848 82.5011 144.21 82.4184 144.551C82.1578 145.632 81.4546 147.831 80.0469 147.831C80.0469 147.831 76.1716 145.248 68.5644 146.826C68.5644 146.826 64.6891 143.67 68.5644 140.083C68.5644 140.083 69.508 129.983 69.0193 125.424C69.0193 125.424 67.7163 116.468 71.2998 110.932L79.9322 89.4397C79.9322 89.4397 79.4438 85.8571 80.7467 85.2059L83.9168 75.2737H115.441C115.441 75.2737 116.936 84.9085 121.022 89.5752" fill="#4456C7"/>
<path fill-rule="evenodd" clip-rule="evenodd" d="M121.022 89.5752C122.325 90.2265 121.836 93.8086 121.836 93.8086L130.469 115.302C134.052 120.838 132.749 129.793 132.749 129.793C132.26 134.352 133.204 144.452 133.204 144.452C137.079 148.039 133.204 151.196 133.204 151.196C125.597 149.618 121.721 152.2 121.721 152.2C119.855 152.2 119.227 148.336 119.227 148.336C121.038 145.62 120.359 142.224 120.359 142.224L116.963 130C115.785 127.646 115.755 126.057 115.879 125.233C115.954 124.736 115.898 124.227 115.68 123.774C106.676 104.972 99.526 103.224 99.526 103.224C99.526 103.224 93.5188 102.822 86.2015 119.088C85.9291 119.694 85.8369 120.362 85.9097 121.022C86.0049 121.883 85.9119 123.419 84.8056 125.631L81.4089 137.855C81.4089 137.855 80.7978 140.909 82.2809 143.542C82.4535 143.848 82.5011 144.21 82.4184 144.551C82.1578 145.632 81.4546 147.831 80.0469 147.831C80.0469 147.831 76.1716 145.248 68.5644 146.826C68.5644 146.826 64.6891 143.67 68.5644 140.083C68.5644 140.083 69.508 129.983 69.0193 125.424C69.0193 125.424 67.7163 116.468 71.2998 110.932L79.9322 89.4397C79.9322 89.4397 79.4438 85.8571 80.7467 85.2059L83.9168 75.2737H115.441C115.441 75.2737 116.936 84.9085 121.022 89.5752Z" stroke="#231F20"/>
<path fill-rule="evenodd" clip-rule="evenodd" d="M95.2863 24.0135C93.3511 20.7296 90.6629 13.1397 100.494 5.37312C100.573 5.31078 100.655 5.25491 100.741 5.2036C101.949 4.48791 110.593 -0.128199 115.596 11.0344C115.621 11.0911 115.648 11.1462 115.679 11.2002C115.93 11.6407 117.288 14.2967 117.241 20.0873C117.24 20.1469 117.238 20.2047 117.233 20.264C117.175 20.9208 116.789 25.0903 116.001 27.2978C115.944 27.4559 115.929 27.6243 115.876 27.7839C115.479 28.9956 115.035 31.6262 109.113 31.6178C108.227 31.6163 107.428 32.1465 107.111 32.9743L105.317 37.6596C104.934 38.6619 103.862 39.2206 102.823 38.9553C98.7856 37.923 89.6797 34.8972 91.9618 29.0105C92.1194 28.6034 92.4188 28.2655 92.7884 28.0329L94.5987 26.8934C95.5731 26.2799 95.871 25.0055 95.2863 24.0135" fill="white"/>
<path fill-rule="evenodd" clip-rule="evenodd" d="M95.2863 24.0135C93.3511 20.7296 90.6629 13.1397 100.494 5.37312C100.573 5.31078 100.655 5.25491 100.741 5.2036C101.949 4.48791 110.593 -0.128199 115.596 11.0344C115.621 11.0911 115.648 11.1462 115.679 11.2002C115.93 11.6407 117.288 14.2967 117.241 20.0873C117.24 20.1469 117.238 20.2047 117.233 20.264C117.175 20.9208 116.789 25.0903 116.001 27.2978C115.944 27.4559 115.929 27.6243 115.876 27.7839C115.479 28.9956 115.035 31.6262 109.113 31.6178C108.227 31.6163 107.428 32.1465 107.111 32.9743L105.317 37.6596C104.934 38.6619 103.862 39.2206 102.823 38.9553C98.7856 37.923 89.6797 34.8972 91.9618 29.0105C92.1194 28.6034 92.4188 28.2655 92.7884 28.0329L94.5987 26.8934C95.5731 26.2799 95.871 25.0055 95.2863 24.0135Z" stroke="#2B2220"/>
<path fill-rule="evenodd" clip-rule="evenodd" d="M95.3996 16.922C95.8178 16.8825 96.1922 17.1983 96.4185 17.5537C96.6449 17.9095 96.7796 18.3207 97.031 18.6586C97.1956 18.8795 97.4375 19.068 97.6968 19.1357C97.9057 19.1896 98.1101 19.0269 98.1021 18.8107C98.0681 17.857 98.0738 16.8855 98.4303 16.0068C98.6676 15.4222 99.0488 14.9098 99.4258 14.4043C99.9852 13.6552 100.544 12.9056 101.104 12.1561C101.573 11.527 102.048 10.8896 102.348 10.1637C102.568 9.63268 102.691 9.06217 102.946 8.54715C103.128 8.17998 103.373 7.84817 103.575 7.4924C103.936 6.85728 104.16 6.14385 104.228 5.41598C104.242 5.25406 104.365 5.12597 104.526 5.11571C105.651 5.04425 106.865 4.96064 107.924 5.29359C109.1 5.66418 110.093 6.45552 111.05 7.23622C112.27 8.23092 113.503 9.25602 114.366 10.5749C114.567 10.8828 114.754 11.2123 115.043 11.4396C115.332 11.6665 115.76 11.7646 116.065 11.5594C116.223 11.4522 116.325 11.2815 116.422 11.1165C116.768 10.527 117.117 9.92687 117.282 9.26324C117.446 8.5996 117.401 7.85083 117.005 7.29476C116.837 7.06024 116.607 6.74249 116.799 6.52698C116.866 6.45134 116.968 6.42017 117.062 6.38331C117.595 6.17654 117.996 5.67938 118.118 5.12255C118.166 4.90552 117.988 4.71016 117.768 4.73068C115.887 4.90476 113.957 4.50757 112.299 3.59916C112.157 3.52086 111.997 3.40531 112.007 3.24264C112.634 2.90664 113.104 2.3023 113.311 1.62042C113.392 1.35284 113.115 1.12554 112.859 1.23805C112.68 1.31711 112.482 1.3707 112.295 1.41365C111.402 1.62004 110.509 1.82605 109.616 2.03243C109.015 2.17079 108.404 2.31066 107.79 2.26087C107.336 2.224 106.897 2.08489 106.459 1.9587C104.121 1.28518 101.683 0.962105 99.2513 1.00353C98.6544 1.0138 98.0336 1.05219 97.5102 1.34105C97.0896 1.57291 96.7641 1.94957 96.3508 2.19397C95.998 2.40264 95.5843 2.51325 95.277 2.78539C94.7785 3.22667 94.6437 4.01878 94.1217 4.40191C93.3731 4.95075 92.6755 5.57258 92.2054 6.37494C91.074 8.30579 89.7712 10.1352 88.3184 11.8349C87.8059 12.4343 87.2703 13.0246 86.8934 13.7175C86.5061 14.4302 86.2983 15.2405 86.2949 16.0524C86.2927 16.4956 86.2983 16.6563 86.6534 16.9201C86.7211 16.1995 86.5258 15.7878 86.7306 15.0934C86.8551 14.6708 87.1447 14.3199 87.4274 13.9824C87.6742 13.6867 87.966 13.3731 88.298 13.1972C88.5577 13.0592 88.8461 13.3218 88.7446 13.5989C88.2946 14.8315 88.259 16.2166 88.6587 17.4678C88.9074 18.2459 89.3128 18.9631 89.7288 19.6655C89.8662 19.8981 90.0096 20.1349 90.2204 20.3033C90.4267 20.4679 90.6818 20.5549 90.9184 20.6716C91.6682 21.0426 92.2292 21.7237 92.616 22.4679C93.0032 23.2117 93.2353 24.0251 93.4824 24.8271C93.5528 25.0548 93.6346 25.2973 93.825 25.4398C93.9734 25.5508 94.1645 25.5827 94.3473 25.6112C95.0548 25.7218 95.7978 25.8279 96.4901 25.6983C96.7414 25.6511 96.8311 25.336 96.6513 25.1532C96.2512 24.7469 95.9908 24.2007 95.9412 23.6306C95.934 23.55 95.9367 23.4557 95.9999 23.4056C96.0453 23.3695 96.1082 23.3683 96.1661 23.3687C96.4291 23.3706 96.5476 23.3003 96.8111 23.3022C95.945 22.9882 95.7622 22.6047 95.3167 22.0399C95.1013 21.7666 94.8841 21.4907 94.7296 21.1782C94.4431 20.5982 94.3912 19.9342 94.3443 19.2888C94.3099 18.8126 94.2766 18.323 94.42 17.8677C94.5635 17.4127 94.9265 16.9672 95.3996 16.922" fill="#2B2220"/>
<path fill-rule="evenodd" clip-rule="evenodd" d="M95.3996 16.922C95.8178 16.8825 96.1922 17.1983 96.4185 17.5537C96.6449 17.9095 96.7796 18.3207 97.031 18.6586C97.1956 18.8795 97.4375 19.068 97.6968 19.1357C97.9057 19.1896 98.1101 19.0269 98.1021 18.8107C98.0681 17.857 98.0738 16.8855 98.4303 16.0068C98.6676 15.4222 99.0488 14.9098 99.4258 14.4043C99.9852 13.6552 100.544 12.9056 101.104 12.1561C101.573 11.527 102.048 10.8896 102.348 10.1637C102.568 9.63268 102.691 9.06217 102.946 8.54715C103.128 8.17998 103.373 7.84817 103.575 7.4924C103.936 6.85728 104.16 6.14385 104.228 5.41598C104.242 5.25406 104.365 5.12597 104.526 5.11571C105.651 5.04425 106.865 4.96064 107.924 5.29359C109.1 5.66418 110.093 6.45552 111.05 7.23622C112.27 8.23092 113.503 9.25602 114.366 10.5749C114.567 10.8828 114.754 11.2123 115.043 11.4396C115.332 11.6665 115.76 11.7646 116.065 11.5594C116.223 11.4522 116.325 11.2815 116.422 11.1165C116.768 10.527 117.117 9.92687 117.282 9.26324C117.446 8.5996 117.401 7.85083 117.005 7.29476C116.837 7.06024 116.607 6.74249 116.799 6.52698C116.866 6.45134 116.968 6.42017 117.062 6.38331C117.595 6.17654 117.996 5.67938 118.118 5.12255C118.166 4.90552 117.988 4.71016 117.768 4.73068C115.887 4.90476 113.957 4.50757 112.299 3.59916C112.157 3.52086 111.997 3.40531 112.007 3.24264C112.634 2.90664 113.104 2.3023 113.311 1.62042C113.392 1.35284 113.115 1.12554 112.859 1.23805C112.68 1.31711 112.482 1.3707 112.295 1.41365C111.402 1.62004 110.509 1.82605 109.616 2.03243C109.015 2.17079 108.404 2.31066 107.79 2.26087C107.336 2.224 106.897 2.08489 106.459 1.9587C104.121 1.28518 101.683 0.962105 99.2513 1.00353C98.6544 1.0138 98.0336 1.05219 97.5102 1.34105C97.0896 1.57291 96.7641 1.94957 96.3508 2.19397C95.998 2.40264 95.5843 2.51325 95.277 2.78539C94.7785 3.22667 94.6437 4.01878 94.1217 4.40191C93.3731 4.95075 92.6755 5.57258 92.2054 6.37494C91.074 8.30579 89.7712 10.1352 88.3184 11.8349C87.8059 12.4343 87.2703 13.0246 86.8934 13.7175C86.5061 14.4302 86.2983 15.2405 86.2949 16.0524C86.2927 16.4956 86.2983 16.6563 86.6534 16.9201C86.7211 16.1995 86.5258 15.7878 86.7306 15.0934C86.8551 14.6708 87.1447 14.3199 87.4274 13.9824C87.6742 13.6867 87.966 13.3731 88.298 13.1972C88.5577 13.0592 88.8461 13.3218 88.7446 13.5989C88.2946 14.8315 88.259 16.2166 88.6587 17.4678C88.9074 18.2459 89.3128 18.9631 89.7288 19.6655C89.8662 19.8981 90.0096 20.1349 90.2204 20.3033C90.4267 20.4679 90.6818 20.5549 90.9184 20.6716C91.6682 21.0426 92.2292 21.7237 92.616 22.4679C93.0032 23.2117 93.2353 24.0251 93.4824 24.8271C93.5528 25.0548 93.6346 25.2973 93.825 25.4398C93.9734 25.5508 94.1645 25.5827 94.3473 25.6112C95.0548 25.7218 95.7978 25.8279 96.4901 25.6983C96.7414 25.6511 96.8311 25.336 96.6513 25.1532C96.2512 24.7469 95.9908 24.2007 95.9412 23.6306C95.934 23.55 95.9367 23.4557 95.9999 23.4056C96.0453 23.3695 96.1082 23.3683 96.1661 23.3687C96.4291 23.3706 96.5476 23.3003 96.8111 23.3022C95.945 22.9882 95.7622 22.6047 95.3167 22.0399C95.1013 21.7666 94.8841 21.4907 94.7296 21.1782C94.4431 20.5982 94.3912 19.9342 94.3443 19.2888C94.3099 18.8126 94.2766 18.323 94.42 17.8677C94.5635 17.4127 94.9265 16.9672 95.3996 16.922Z" stroke="#2B2220"/>
<path fill-rule="evenodd" clip-rule="evenodd" d="M112.65 23.1153C112.062 23.2064 109.604 23.668 109.298 25.0708C109.222 25.4216 109.473 25.7579 109.796 25.7579H113.721C114.015 25.7579 114.288 25.5752 114.414 25.2775C114.699 24.5985 114.887 23.4087 112.898 23.114C112.816 23.1016 112.732 23.1029 112.65 23.1153Z" stroke="#2B2220"/>
<path fill-rule="evenodd" clip-rule="evenodd" d="M102.418 14.8482C102.418 14.8482 107.982 12.0943 110.834 14.1271C110.996 14.2422 111.202 14.2681 111.393 14.2185C111.798 14.1143 112.524 13.9725 113.226 14.0703C113.374 14.0906 113.522 14.0752 113.654 14.006C114.304 13.6659 116.586 12.7334 119.569 14.4671C119.773 14.5856 119.895 14.8102 119.895 15.0483V15.1529C119.895 15.1529 119.249 15.2834 119.041 15.7574C119.012 15.8228 119.004 15.8947 119.003 15.9661C118.994 16.4217 118.882 18.3201 117.614 19.3248C117.293 19.5784 116.886 19.6935 116.479 19.6935H115.546C115.274 19.6337 115.099 19.5727 114.977 19.3737C114.449 18.5165 113.186 16.1647 113.021 15.453C112.866 14.7809 112.216 14.9366 112.052 15.1766C111.957 15.3154 111.948 15.4956 111.904 15.6584C111.684 16.4709 110.814 19.2601 109.039 20.1554C109.008 20.1708 108.975 20.1847 108.942 20.196C108.543 20.3341 105.901 21.1391 104.213 18.9355C104.149 18.8524 104.108 18.7538 104.09 18.65C103.992 18.0982 103.6 16.2223 102.745 15.9244L102.677 15.9014C102.326 15.7826 102.114 15.3914 102.254 15.0457C102.29 14.9561 102.342 14.8832 102.418 14.8482" fill="#4456C7"/>
<path fill-rule="evenodd" clip-rule="evenodd" d="M102.418 14.8482C102.418 14.8482 107.982 12.0943 110.834 14.1271C110.996 14.2422 111.202 14.2681 111.393 14.2185C111.798 14.1143 112.524 13.9725 113.226 14.0703C113.374 14.0906 113.522 14.0752 113.654 14.006C114.304 13.6659 116.586 12.7334 119.569 14.4671C119.773 14.5856 119.895 14.8102 119.895 15.0483V15.1529C119.895 15.1529 119.249 15.2834 119.041 15.7574C119.012 15.8228 119.004 15.8947 119.003 15.9661C118.994 16.4217 118.882 18.3201 117.614 19.3248C117.293 19.5784 116.886 19.6935 116.479 19.6935H115.546C115.274 19.6337 115.099 19.5727 114.977 19.3737C114.449 18.5165 113.186 16.1647 113.021 15.453C112.866 14.7809 112.216 14.9366 112.052 15.1766C111.957 15.3154 111.948 15.4956 111.904 15.6584C111.684 16.4709 110.814 19.2601 109.039 20.1554C109.008 20.1708 108.975 20.1847 108.942 20.196C108.543 20.3341 105.901 21.1391 104.213 18.9355C104.149 18.8524 104.108 18.7538 104.09 18.65C103.992 18.0982 103.6 16.2223 102.745 15.9244L102.677 15.9014C102.326 15.7826 102.114 15.3914 102.254 15.0457C102.29 14.9561 102.342 14.8832 102.418 14.8482Z" stroke="#231F20"/>
<path fill-rule="evenodd" clip-rule="evenodd" d="M112.649 19.9544C112.649 20.1038 112.528 20.3372 112.379 20.3372C112.229 20.3372 112.108 20.1038 112.108 19.9544C112.108 19.8049 112.229 19.6838 112.379 19.6838C112.528 19.6838 112.649 19.8049 112.649 19.9544" fill="#2B2220"/>
<path fill-rule="evenodd" clip-rule="evenodd" d="M112.649 19.9544C112.649 20.1038 112.528 20.3372 112.379 20.3372C112.229 20.3372 112.108 20.1038 112.108 19.9544C112.108 19.8049 112.229 19.6838 112.379 19.6838C112.528 19.6838 112.649 19.8049 112.649 19.9544Z" stroke="#2B2220" stroke-width="0.25"/>
<path fill-rule="evenodd" clip-rule="evenodd" d="M113.534 19.9544C113.534 20.1038 113.413 20.3372 113.263 20.3372C113.114 20.3372 112.993 20.1038 112.993 19.9544C112.993 19.8049 113.114 19.6838 113.263 19.6838C113.413 19.6838 113.534 19.8049 113.534 19.9544" fill="#2B2220"/>
<path fill-rule="evenodd" clip-rule="evenodd" d="M113.534 19.9544C113.534 20.1038 113.413 20.3372 113.263 20.3372C113.114 20.3372 112.993 20.1038 112.993 19.9544C112.993 19.8049 113.114 19.6838 113.263 19.6838C113.413 19.6838 113.534 19.8049 113.534 19.9544Z" stroke="#2B2220" stroke-width="0.25"/>
<path d="M113.435 21.9238V22.9931" stroke="#2B2220" stroke-linecap="round" stroke-linejoin="round"/>
<path fill-rule="evenodd" clip-rule="evenodd" d="M111.428 21.5899L111.135 22.8243Z" fill="#2B2220"/>
<path d="M111.428 21.5899L111.135 22.8243" stroke="#2B2220" stroke-linecap="round" stroke-linejoin="round"/>
<path fill-rule="evenodd" clip-rule="evenodd" d="M110.655 22.579L110.201 23.6767Z" fill="#2B2220"/>
<path d="M110.655 22.579L110.201 23.6767" stroke="#2B2220" stroke-linecap="round" stroke-linejoin="round"/>
<path fill-rule="evenodd" clip-rule="evenodd" d="M108.934 23.4537L108.512 24.4609Z" fill="#2B2220"/>
<path d="M108.934 23.4537L108.512 24.4609" stroke="#2B2220" stroke-linecap="round" stroke-linejoin="round"/>
<path fill-rule="evenodd" clip-rule="evenodd" d="M64.2234 45.6346C72.8704 48.0216 75.4874 45.6346 75.4874 45.6346H79.356C76.739 42.0542 80.7214 39.5591 80.7214 39.5591L77.0017 38.5451C77.0017 38.5451 71.7738 33.9161 66.546 34.9847" fill="#FFCCF9"/>
<path d="M64.2234 45.6346C72.8704 48.0216 75.4874 45.6346 75.4874 45.6346H79.356C76.739 42.0542 80.7214 39.5591 80.7214 39.5591L77.0017 38.5451C77.0017 38.5451 71.7738 33.9161 66.546 34.9847" stroke="#231F20"/>
<path fill-rule="evenodd" clip-rule="evenodd" d="M81.1411 39.9252C81.1411 39.9252 84.0665 40.1698 85.185 39.9252C86.3034 39.6806 88.4471 39.0716 88.4471 39.0716C88.4471 39.0716 89.8453 38.65 91.4298 40.2421L94.6454 44.0353C94.6454 44.0353 95.5309 45.7212 94.9248 47.9223C94.9248 47.9223 94.5413 49.1811 92.2711 48.9085C92.2711 48.9085 91.4568 50.4209 90.7413 50.4952C90.7413 50.4952 86.3739 51.0159 82.6234 46.8256L81.1411 46.6518H79.4398C79.4398 46.6518 76.0566 42.7197 81.1411 39.9252" fill="white"/>
<path fill-rule="evenodd" clip-rule="evenodd" d="M81.1411 39.9252C81.1411 39.9252 84.0665 40.1698 85.185 39.9252C86.3034 39.6806 88.4471 39.0716 88.4471 39.0716C88.4471 39.0716 89.8453 38.65 91.4298 40.2421L94.6454 44.0353C94.6454 44.0353 95.5309 45.7212 94.9248 47.9223C94.9248 47.9223 94.5413 49.1811 92.2711 48.9085C92.2711 48.9085 91.4568 50.4209 90.7413 50.4952C90.7413 50.4952 86.3739 51.0159 82.6234 46.8256L81.1411 46.6518H79.4398C79.4398 46.6518 76.0566 42.7197 81.1411 39.9252Z" stroke="#2B2220"/>
<path d="M89.055 41.6737V42.7836C89.055 42.7836 88.0817 43.08 88.0632 44.0416C88.0632 44.0416 89.2019 44.7818 90.3771 43.8753C90.3771 43.8753 90.8914 43.3386 90.6526 42.1732" stroke="#2B2220" stroke-linecap="round" stroke-linejoin="round"/>
<path d="M88.9491 44.3609C88.9491 44.3609 88.8302 46.285 90.494 46.0794C90.494 46.0794 92.3652 45.5209 92.4841 43.7872V42.5579" stroke="#2B2220" stroke-linecap="round" stroke-linejoin="round"/>
<path d="M90.7158 46.0386C90.7158 46.0386 90.9404 47.1986 91.9088 46.9418C91.9088 46.9418 93.3685 46.5631 93.3685 45.7441V44.3263" stroke="#2B2220" stroke-linecap="round" stroke-linejoin="round"/>
<path d="M91.691 47.8632C91.691 47.8632 91.204 48.642 92.4843 48.7474" stroke="#2B2220" stroke-linecap="round" stroke-linejoin="round"/>
<path d="M88.0631 44.3263C88.0631 44.3263 87.2491 46.138 86.2947 46.0939" stroke="#2B2220" stroke-linecap="round" stroke-linejoin="round"/>
<path d="M76.5685 40.7895C76.5685 40.7895 73.1781 43.7062 75.7861 45.2105" stroke="#2B2220"/>
<path d="M89.6535 46.0947C89.6535 46.0947 88.4651 48.2141 89.6535 48.7474" stroke="#2B2220" stroke-linecap="round" stroke-linejoin="round"/>
<path fill-rule="evenodd" clip-rule="evenodd" d="M126.998 34.7507C126.908 34.1691 127.042 33.71 127.151 33.335C127.729 31.3562 129.531 30.4517 130.006 30.2317C130.006 30.2317 136.115 29.3981 137.895 34.3581C137.895 34.3581 139.432 37.6923 137.45 39.4011C135.592 41.003 130.127 38.2755 130.127 38.2755C130.127 38.2759 127.317 36.8187 126.998 34.7507" fill="#F1F1F2"/>
<path fill-rule="evenodd" clip-rule="evenodd" d="M126.998 34.7507C126.908 34.1691 127.042 33.71 127.151 33.335C127.729 31.3562 129.531 30.4517 130.006 30.2317C130.006 30.2317 136.115 29.3981 137.895 34.3581C137.895 34.3581 139.432 37.6923 137.45 39.4011C135.592 41.003 130.127 38.2755 130.127 38.2755C130.127 38.2759 127.317 36.8187 126.998 34.7507Z" stroke="#2B2220" stroke-linecap="round" stroke-linejoin="round"/>
<path fill-rule="evenodd" clip-rule="evenodd" d="M126.981 35.5056C126.981 35.5056 125.588 35.2058 126.274 36.8497C126.274 36.8497 127.361 39.2755 129.298 38.9991C129.299 38.9987 129.299 38.9995 129.3 38.9987C129.313 38.9805 130.274 37.651 128.807 36.67C128.76 36.6387 128.709 36.6157 128.656 36.6004C128.343 36.5082 127.602 35.7638 126.981 35.5056" fill="#F1F1F2"/>
<path fill-rule="evenodd" clip-rule="evenodd" d="M126.981 35.5056C126.981 35.5056 125.588 35.2058 126.274 36.8497C126.274 36.8497 127.361 39.2755 129.298 38.9991C129.299 38.9987 129.299 38.9995 129.3 38.9987C129.313 38.9805 130.274 37.651 128.807 36.67C128.76 36.6387 128.709 36.6157 128.656 36.6004C128.343 36.5082 127.602 35.7638 126.981 35.5056Z" stroke="#2B2220" stroke-linecap="round" stroke-linejoin="round"/>
<path d="M131.211 31.9474C131.211 31.9474 129.743 34.8579 129.621 35.7124C129.621 35.7124 129.64 36.9874 131.211 37.2303C131.211 37.2303 131.726 37.3222 131.811 37.1334C131.811 37.1334 131.436 34.4911 133.158 32.5087" stroke="#2B2220"/>
<path d="M131.389 36.3204C131.389 36.3204 131.882 37.6899 133.507 37.1091C133.507 37.1091 133.039 35.8867 134.926 32.8316" stroke="#2B2220"/>
<path d="M134.042 36.9161C134.042 36.9161 135.24 37.8643 136.087 36.5774C136.087 36.5774 135.56 35.4634 136.695 34.6" stroke="#2B2220"/>
<path d="M131.389 40.9304C131.389 40.9304 135.81 45.2016 137.579 39.9053" stroke="#2B2220"/>
<path d="M129.621 39.9053C129.621 39.9053 126.237 43.5204 128.831 46.979" stroke="#2B2220" stroke-linecap="round" stroke-linejoin="round"/>
<path d="M126.084 41.6737C126.084 41.6737 123.16 44.1296 123.452 46.0948" stroke="#2B2220" stroke-linecap="round" stroke-linejoin="round"/>
<path d="M92.4841 37.18C92.4841 37.18 103.426 44.321 108.4 35.4842" stroke="#2B2220"/>
<path d="M83.6421 31.0632C83.6421 31.0632 86.4794 33.2294 84.9662 38.1369" stroke="#2B2220"/>
<path fill-rule="evenodd" clip-rule="evenodd" d="M68.9584 146.662C68.9584 146.662 68.9584 150.453 65.7017 152.288C62.4455 154.122 63.3501 157.075 63.6529 157.075C63.6529 157.075 67.7126 160.033 74.7414 157.075C74.7414 157.075 77.7546 155.669 78.2149 153.3C78.2149 153.3 80.8496 151.912 80.8496 150.727C80.8496 150.727 81.5187 148.114 79.9294 147.624C79.9294 147.624 75.1347 144.761 68.9584 146.662" fill="white"/>
<path fill-rule="evenodd" clip-rule="evenodd" d="M68.9584 146.662C68.9584 146.662 68.9584 150.453 65.7017 152.288C62.4455 154.122 63.3501 157.075 63.6529 157.075C63.6529 157.075 67.7126 160.033 74.7414 157.075C74.7414 157.075 77.7546 155.669 78.2149 153.3C78.2149 153.3 80.8496 151.912 80.8496 150.727C80.8496 150.727 81.5187 148.114 79.9294 147.624C79.9294 147.624 75.1347 144.761 68.9584 146.662Z" stroke="#2B2220"/>
<path fill-rule="evenodd" clip-rule="evenodd" d="M80.9895 85.8073C80.9895 85.8073 87.5467 87.0887 103.939 79.1871C103.939 79.1871 114.868 73.4208 119.895 76.6243L108.167 54.0526L84.5196 56.7612L80.9895 85.8073Z" fill="#FFCCF9"/>
<path d="M80.9895 85C80.9895 85 95.6515 83.6333 109.103 77.1897C109.103 77.1897 115.425 74.5702 119.011 77.6788" stroke="#2B2220"/>
<path d="M83.6421 80.5789C83.6421 80.5789 90.4373 80.5789 107.254 73.0491C107.254 73.0491 115.238 70.7577 118.126 72.2306" stroke="#2B2220"/>
<path d="M103.564 84.1158C103.564 84.1158 105.407 95.5046 101.326 96.4947" stroke="#2B2220"/>
<path d="M99.5579 84.1158C99.5579 84.1158 101.16 99.4919 100.051 100.916" stroke="#2B2220"/>
<path d="M96.021 83.9569C96.021 83.9569 102.41 85.058 109.284 81.4631" stroke="#2B2220"/>
<path fill-rule="evenodd" clip-rule="evenodd" d="M177.055 62.7244C177.055 62.7244 176.478 67.6786 173.523 70.8231C173.37 70.9855 173.411 71.2485 173.611 71.3457C174.454 71.7547 176.445 72.5561 177.662 71.7046C177.696 71.6811 177.733 71.6636 177.774 71.6553L179.549 71.2922C179.595 71.2823 179.643 71.2834 179.688 71.2948L180.856 71.5843C181.038 71.6295 181.22 71.5073 181.249 71.3187C181.668 68.6485 184.052 51.4104 176.777 46.1739C176.768 46.1674 176.76 46.1617 176.75 46.1561C176.338 45.9007 166.992 40.2502 160.766 48.3414C160.766 48.3414 151.976 59.318 153.735 66.7201C153.745 66.7641 153.747 66.8073 153.738 66.8517C153.635 67.364 152.899 70.7131 151.038 72.1216C150.786 72.3121 150.908 72.7132 151.222 72.7132H153.508C153.532 72.7132 153.554 72.7159 153.578 72.7212C153.718 72.7527 154.303 72.843 154.848 72.33C155.07 72.1216 155.426 72.2901 155.394 72.5952C155.352 72.9971 155.263 73.3704 155.082 73.452C154.657 73.6421 156.852 74.842 160.826 73.8303C160.862 73.8209 160.897 73.8053 160.928 73.7844L161.789 73.2103C161.944 73.1071 162.153 73.1579 162.244 73.3207L162.664 74.0664C162.722 74.1681 162.829 74.2307 162.944 74.2303L166.657 74.2144" fill="#2B2220"/>
<path d="M177.055 62.7244C177.055 62.7244 176.478 67.6786 173.523 70.8231C173.37 70.9855 173.411 71.2485 173.611 71.3457C174.454 71.7547 176.445 72.5561 177.662 71.7046C177.696 71.6811 177.733 71.6636 177.774 71.6553L179.549 71.2922C179.595 71.2823 179.643 71.2834 179.688 71.2948L180.856 71.5843C181.038 71.6295 181.22 71.5073 181.249 71.3187C181.668 68.6485 184.052 51.4104 176.777 46.1739C176.768 46.1674 176.76 46.1617 176.75 46.1561C176.338 45.9007 166.992 40.2502 160.766 48.3414C160.766 48.3414 151.976 59.318 153.735 66.7201C153.745 66.7641 153.747 66.8073 153.738 66.8517C153.635 67.364 152.899 70.7131 151.038 72.1216C150.786 72.3121 150.908 72.7132 151.222 72.7132H153.508C153.532 72.7132 153.554 72.7159 153.578 72.7212C153.718 72.7527 154.303 72.843 154.848 72.33C155.07 72.1216 155.426 72.2901 155.394 72.5952C155.352 72.9971 155.263 73.3704 155.082 73.452C154.657 73.6421 156.852 74.842 160.826 73.8303C160.862 73.8209 160.897 73.8053 160.928 73.7844L161.789 73.2103C161.944 73.1071 162.153 73.1579 162.244 73.3207L162.664 74.0664C162.722 74.1681 162.829 74.2307 162.944 74.2303L166.657 74.2144" stroke="#2B2220"/>
<path fill-rule="evenodd" clip-rule="evenodd" d="M137.159 150.968C137.159 150.968 140.736 158.962 139.684 161.703C139.684 161.703 143.345 164.891 146.451 161.703L145.38 150.968H137.159Z" fill="white"/>
<path fill-rule="evenodd" clip-rule="evenodd" d="M137.159 150.968C137.159 150.968 140.736 158.962 139.684 161.703C139.684 161.703 143.345 164.891 146.451 161.703L145.38 150.968H137.159Z" stroke="#2B2220"/>
<path fill-rule="evenodd" clip-rule="evenodd" d="M176.472 177.415C176.472 177.415 180.05 185.409 178.998 188.15C178.998 188.15 182.658 191.338 185.765 188.15L184.693 177.415H176.472Z" fill="white"/>
<path fill-rule="evenodd" clip-rule="evenodd" d="M176.472 177.415C176.472 177.415 180.05 185.409 178.998 188.15C178.998 188.15 182.658 191.338 185.765 188.15L184.693 177.415H176.472Z" stroke="#2B2220"/>
<path fill-rule="evenodd" clip-rule="evenodd" d="M166.832 73.9234C166.832 73.9234 166.419 71.7861 161.981 70.3988C160.672 69.99 159.515 69.1852 158.769 68.047C156.992 65.3354 155.35 59.7347 161.758 50.7227C161.758 50.7227 166.649 43.3982 173.354 46.7897C173.354 46.7897 180.059 49.7982 179.747 58.4685C179.747 58.4685 183.129 57.6033 180.433 61.4983C180.433 61.4983 179.585 62.5037 178.81 64.0607C178.597 64.4866 178.083 64.7197 177.641 64.5321C177.228 64.3565 176.913 63.8709 177.307 62.6309C177.307 62.6309 175.659 66.1029 175.945 67.8747L177.842 80.8824L179.198 87.3513L164.471 84.8504L166.832 73.9234Z" fill="white"/>
<path fill-rule="evenodd" clip-rule="evenodd" d="M166.832 73.9234C166.832 73.9234 166.419 71.7861 161.981 70.3988C160.672 69.99 159.515 69.1852 158.769 68.047C156.992 65.3354 155.35 59.7347 161.758 50.7227C161.758 50.7227 166.649 43.3982 173.354 46.7897C173.354 46.7897 180.059 49.7982 179.747 58.4685C179.747 58.4685 183.129 57.6033 180.433 61.4983C180.433 61.4983 179.585 62.5037 178.81 64.0607C178.597 64.4866 178.083 64.7197 177.641 64.5321C177.228 64.3565 176.913 63.8709 177.307 62.6309C177.307 62.6309 175.659 66.1029 175.945 67.8747L177.842 80.8824L179.198 87.3513L164.471 84.8504L166.832 73.9234Z" stroke="#2B2220"/>
<path fill-rule="evenodd" clip-rule="evenodd" d="M172.722 57.2365C172.722 57.2365 167.999 54.7321 165.578 56.5808C165.441 56.6855 165.266 56.7092 165.104 56.6638C164.76 56.5688 164.144 56.4405 163.548 56.5289C163.423 56.5475 163.297 56.5335 163.185 56.4707C162.633 56.1613 160.696 55.3133 158.164 56.8898C157.991 56.9976 157.888 57.2024 157.888 57.4183V57.5137C157.888 57.5137 158.436 57.6324 158.613 58.0635C158.637 58.1228 158.644 58.1884 158.645 58.2531C158.652 58.6672 158.747 60.3942 159.824 61.3077C160.096 61.5384 160.442 61.6431 160.787 61.6431H161.578C161.81 61.5888 161.958 61.5334 162.062 61.3523C162.51 60.5726 163.582 58.4338 163.722 57.7867C163.854 57.1752 164.405 57.3171 164.545 57.535C164.625 57.6614 164.633 57.8254 164.67 57.9732C164.857 58.7122 165.595 61.2492 167.102 62.063C167.129 62.0774 167.156 62.0898 167.184 62.1002C167.524 62.2259 169.765 62.9575 171.199 60.9537C171.253 60.8781 171.288 60.7885 171.303 60.6939C171.386 60.1922 171.719 58.4862 172.445 58.2151L172.502 58.1942C172.8 58.0864 172.98 57.7305 172.862 57.416C172.831 57.3346 172.786 57.2687 172.722 57.2365" fill="#3EEDFF"/>
<path fill-rule="evenodd" clip-rule="evenodd" d="M172.722 57.2365C172.722 57.2365 167.999 54.7321 165.578 56.5808C165.441 56.6855 165.266 56.7092 165.104 56.6638C164.76 56.5688 164.144 56.4405 163.548 56.5289C163.423 56.5475 163.297 56.5335 163.185 56.4707C162.633 56.1613 160.696 55.3133 158.164 56.8898C157.991 56.9976 157.888 57.2024 157.888 57.4183V57.5137C157.888 57.5137 158.436 57.6324 158.613 58.0635C158.637 58.1228 158.644 58.1884 158.645 58.2531C158.652 58.6672 158.747 60.3942 159.824 61.3077C160.096 61.5384 160.442 61.6431 160.787 61.6431H161.578C161.81 61.5888 161.958 61.5334 162.062 61.3523C162.51 60.5726 163.582 58.4338 163.722 57.7867C163.854 57.1752 164.405 57.3171 164.545 57.535C164.625 57.6614 164.633 57.8254 164.67 57.9732C164.857 58.7122 165.595 61.2492 167.102 62.063C167.129 62.0774 167.156 62.0898 167.184 62.1002C167.524 62.2259 169.765 62.9575 171.199 60.9537C171.253 60.8781 171.288 60.7885 171.303 60.6939C171.386 60.1922 171.719 58.4862 172.445 58.2151L172.502 58.1942C172.8 58.0864 172.98 57.7305 172.862 57.416C172.831 57.3346 172.786 57.2687 172.722 57.2365Z" stroke="#231F20"/>
<path fill-rule="evenodd" clip-rule="evenodd" d="M166.219 75.4787C166.219 75.4787 169.31 87.7366 178.579 75.4787C178.579 75.4787 186.304 72.0833 186.768 79.2078C186.768 79.2078 188.932 86.9199 183.51 94.7738C183.51 94.7738 184.797 104.75 184.402 108.804C184.402 108.804 173.008 123.563 162.388 115.862C162.388 115.862 156.24 103.76 156.799 92.2873C156.799 92.2873 148.247 96.6143 145.52 96.8445C145.52 96.8445 142.997 97.6113 139.521 96.9212L137.884 98.6847C137.884 98.6847 134.203 97.7648 133.181 98.148C133.181 98.148 131.135 97.6113 130.931 93.8543C130.931 93.8543 129.925 89.0311 132.366 85.4679C132.366 85.4679 134.547 86.5193 137.663 85.2925C137.663 85.2925 138.997 85.0918 139.536 86.6769C139.536 86.6769 140.904 86.3972 141.235 86.9566C141.235 86.9566 142.81 85.9308 144.095 86.3039C145.38 86.6769 153.594 81.2078 154.67 79.8827C154.67 79.8827 164.914 71.7084 166.219 75.4787" fill="#4456C7"/>
<path fill-rule="evenodd" clip-rule="evenodd" d="M166.219 75.4787C166.219 75.4787 169.31 87.7366 178.579 75.4787C178.579 75.4787 186.304 72.0833 186.768 79.2078C186.768 79.2078 188.932 86.9199 183.51 94.7738C183.51 94.7738 184.797 104.75 184.402 108.804C184.402 108.804 173.008 123.563 162.388 115.862C162.388 115.862 156.24 103.76 156.799 92.2873C156.799 92.2873 148.247 96.6143 145.52 96.8445C145.52 96.8445 142.997 97.6113 139.521 96.9212L137.884 98.6847C137.884 98.6847 134.203 97.7648 133.181 98.148C133.181 98.148 131.135 97.6113 130.931 93.8543C130.931 93.8543 129.925 89.0311 132.366 85.4679C132.366 85.4679 134.547 86.5193 137.663 85.2925C137.663 85.2925 138.997 85.0918 139.536 86.6769C139.536 86.6769 140.904 86.3972 141.235 86.9566C141.235 86.9566 142.81 85.9308 144.095 86.3039C145.38 86.6769 153.594 81.2078 154.67 79.8827C154.67 79.8827 164.914 71.7084 166.219 75.4787Z" stroke="#231F20"/>
<path fill-rule="evenodd" clip-rule="evenodd" d="M162.112 114.08C162.112 114.08 156.687 121.146 155.812 121.762L154.937 122.377C154.937 122.377 134.635 126.084 133.584 134.205C133.584 134.205 136.91 146.732 135.422 150.984C135.422 150.984 136.984 154.083 145.845 152.064C145.845 152.064 147.56 139.762 146.798 138.8C146.798 138.8 164.045 134.379 170.143 137.167C170.143 137.167 168.905 162.431 171.24 166.274C171.24 166.274 176.505 178.066 175.807 180.6C175.807 180.6 181.666 182.007 185.084 179.474C185.084 179.474 183.098 155.887 182.674 155.245C182.25 154.604 194.223 130.451 188.501 116.45L184.369 107.366C184.369 107.366 175.88 115.129 162.112 114.08" fill="#FFCCF9"/>
<path fill-rule="evenodd" clip-rule="evenodd" d="M162.112 114.08C162.112 114.08 156.687 121.146 155.812 121.762L154.937 122.377C154.937 122.377 134.635 126.084 133.584 134.205C133.584 134.205 136.91 146.732 135.422 150.984C135.422 150.984 136.984 154.083 145.845 152.064C145.845 152.064 147.56 139.762 146.798 138.8C146.798 138.8 164.045 134.379 170.143 137.167C170.143 137.167 168.905 162.431 171.24 166.274C171.24 166.274 176.505 178.066 175.807 180.6C175.807 180.6 181.666 182.007 185.084 179.474C185.084 179.474 183.098 155.887 182.674 155.245C182.25 154.604 194.223 130.451 188.501 116.45L184.369 107.366C184.369 107.366 175.88 115.129 162.112 114.08Z" stroke="#231F20"/>
<path d="M178.928 85.2069C178.928 85.2069 175.111 92.5626 171.996 94.7794C171.996 94.7794 168.998 93.9138 165.75 98.2175C165.75 98.2175 168.766 96.8217 170.332 99.3228C170.332 99.3228 172.245 102.289 169.462 104.034C169.462 104.034 167.531 104.678 170.172 105.208C170.172 105.208 172.48 105.507 173.893 103.238C173.893 103.238 175.354 101.064 177.852 100.923C177.852 100.923 183.553 95.4686 183.62 94.2496" stroke="#2B2220"/>
<path fill-rule="evenodd" clip-rule="evenodd" d="M168.106 97.1833C168.106 97.1833 165.481 97.7869 164.425 97.5432C163.369 97.2998 161.345 96.6939 161.345 96.6939C161.345 96.6939 160.025 96.2744 158.529 97.8589L155.493 101.633C155.493 101.633 154.657 103.31 155.229 105.5C155.229 105.5 155.591 106.752 157.735 106.481C157.735 106.481 158.503 107.986 159.179 108.06C159.179 108.06 163.303 108.578 166.844 104.409L168.243 104.236L169.713 103.876C169.713 103.876 172.907 99.9638 168.106 97.1833" fill="white"/>
<path fill-rule="evenodd" clip-rule="evenodd" d="M168.106 97.1833C168.106 97.1833 165.481 97.7869 164.425 97.5432C163.369 97.2998 161.345 96.6939 161.345 96.6939C161.345 96.6939 160.025 96.2744 158.529 97.8589L155.493 101.633C155.493 101.633 154.657 103.31 155.229 105.5C155.229 105.5 155.591 106.752 157.735 106.481C157.735 106.481 158.503 107.986 159.179 108.06C159.179 108.06 163.303 108.578 166.844 104.409L168.243 104.236L169.713 103.876C169.713 103.876 172.907 99.9638 168.106 97.1833Z" stroke="#2B2220"/>
<path d="M160.393 98.788V99.9844C160.393 99.9844 161.442 100.304 161.461 101.34C161.461 101.34 160.234 102.138 158.967 101.161C158.967 101.161 158.413 100.583 158.671 99.3265" stroke="#2B2220" stroke-linecap="round" stroke-linejoin="round"/>
<path d="M160.745 102.039C160.745 102.039 160.865 103.984 159.184 103.776C159.184 103.776 157.293 103.212 157.173 101.46V100.218" stroke="#2B2220" stroke-linecap="round" stroke-linejoin="round"/>
<path d="M159.317 103.493C159.317 103.493 159.136 104.743 158.353 104.466C158.353 104.466 157.173 104.058 157.173 103.175V101.647" stroke="#2B2220" stroke-linecap="round" stroke-linejoin="round"/>
<path d="M157.814 105.221C157.814 105.221 158.208 106.48 157.173 106.651" stroke="#2B2220" stroke-linecap="round" stroke-linejoin="round"/>
<path d="M161.461 101.647C161.461 101.647 162.119 103.111 162.891 103.076" stroke="#2B2220" stroke-linecap="round" stroke-linejoin="round"/>
<path d="M160.176 104.506C160.176 104.506 161.137 105.649 160.176 105.936" stroke="#2B2220" stroke-linecap="round" stroke-linejoin="round"/>
<path fill-rule="evenodd" clip-rule="evenodd" d="M147.427 160.682C147.427 160.682 149.49 163.93 144.815 164.44C144.815 164.44 139.179 166.35 137.873 167.624C137.873 167.624 131.343 169.152 130.312 166.86C130.312 166.86 128.181 164.376 135.261 161.064L138.946 157.458C138.946 157.458 143.802 156.703 147.427 160.682" fill="white"/>
<path fill-rule="evenodd" clip-rule="evenodd" d="M147.427 160.682C147.427 160.682 149.49 163.93 144.815 164.44C144.815 164.44 139.179 166.35 137.873 167.624C137.873 167.624 131.343 169.152 130.312 166.86C130.312 166.86 128.181 164.376 135.261 161.064L138.946 157.458C138.946 157.458 143.802 156.703 147.427 160.682Z" stroke="#2B2220"/>
<path fill-rule="evenodd" clip-rule="evenodd" d="M188.171 188.559C188.171 188.559 190.233 191.807 185.559 192.317C185.559 192.317 179.922 194.227 178.616 195.501C178.616 195.501 172.086 197.029 171.055 194.737C171.055 194.737 168.924 192.253 176.004 188.941L179.689 185.335C179.689 185.335 184.545 184.58 188.171 188.559" fill="white"/>
<path fill-rule="evenodd" clip-rule="evenodd" d="M188.171 188.559C188.171 188.559 190.233 191.807 185.559 192.317C185.559 192.317 179.922 194.227 178.616 195.501C178.616 195.501 172.086 197.029 171.055 194.737C171.055 194.737 168.924 192.253 176.004 188.941L179.689 185.335C179.689 185.335 184.545 184.58 188.171 188.559Z" stroke="#2B2220"/>
<path fill-rule="evenodd" clip-rule="evenodd" d="M130.011 88.5142C130.011 88.5142 125.437 87.8934 125.437 86.5744C125.437 86.5744 124.74 79.9205 124.89 77.1489C124.89 77.1489 124.542 75.3967 123.646 76.8613C123.646 76.8613 123.149 82.1173 123.224 82.1954C123.298 82.2739 122.478 82.457 122.354 79.2144C122.354 79.2144 121.991 74.7159 120.899 74.7913C120.899 74.7913 120.653 73.472 119.555 73.8327C119.555 73.8327 118.719 74.0905 118.881 76.4232C118.881 76.4232 117.838 74.8453 117.251 76.4232C117.251 76.4232 117.299 81.4354 118.289 83.3386C118.289 83.3386 118.78 84.8621 118.818 85.3992C118.822 85.461 118.747 85.4901 118.711 85.4414C118.322 84.9225 116.743 82.9642 115.318 83.3386C115.318 83.3386 113.987 84.0217 116.771 85.6543C116.916 85.7396 117.047 85.8524 117.151 85.9898C117.539 86.5061 118.555 87.8926 119.208 89.1403C119.585 89.8611 120.109 90.4876 120.758 90.9484C121.689 91.6103 123.095 92.2477 124.767 91.8488C124.767 91.8488 129.938 92.9244 130.011 93.7845V88.5142Z" fill="white"/>
<path fill-rule="evenodd" clip-rule="evenodd" d="M130.011 88.5142C130.011 88.5142 125.437 87.8934 125.437 86.5744C125.437 86.5744 124.74 79.9205 124.89 77.1489C124.89 77.1489 124.542 75.3967 123.646 76.8613C123.646 76.8613 123.149 82.1173 123.224 82.1954C123.298 82.2739 122.478 82.457 122.354 79.2144C122.354 79.2144 121.991 74.7159 120.899 74.7913C120.899 74.7913 120.653 73.472 119.555 73.8327C119.555 73.8327 118.719 74.0905 118.881 76.4232C118.881 76.4232 117.838 74.8453 117.251 76.4232C117.251 76.4232 117.299 81.4354 118.289 83.3386C118.289 83.3386 118.78 84.8621 118.818 85.3992C118.822 85.461 118.747 85.4901 118.711 85.4414C118.322 84.9225 116.743 82.9642 115.318 83.3386C115.318 83.3386 113.987 84.0217 116.771 85.6543C116.916 85.7396 117.047 85.8524 117.151 85.9898C117.539 86.5061 118.555 87.8926 119.208 89.1403C119.585 89.8611 120.109 90.4876 120.758 90.9484C121.689 91.6103 123.095 92.2477 124.767 91.8488C124.767 91.8488 129.938 92.9244 130.011 93.7845V88.5142Z" stroke="#2B2220"/>
<path fill-rule="evenodd" clip-rule="evenodd" d="M120.177 76.9242C120.177 76.9242 121.17 81.9526 121.125 83.3594Z" fill="white"/>
<path d="M120.177 76.9242C120.177 76.9242 121.17 81.9526 121.125 83.3594" stroke="#2B2220" stroke-linecap="round" stroke-linejoin="round"/>
<path fill-rule="evenodd" clip-rule="evenodd" d="M121.569 74.572C121.569 74.572 122.25 80.0489 122.117 81.5587Z" fill="white"/>
<path d="M121.569 74.572C121.569 74.572 122.25 80.0489 122.117 81.5587" stroke="#2B2220" stroke-linecap="round" stroke-linejoin="round"/>
<path fill-rule="evenodd" clip-rule="evenodd" d="M162.267 51.6614C162.415 51.8135 162.577 51.9491 162.783 52.0164C163.729 52.3263 166.365 53.06 168.847 52.5727L170.556 52.3289C170.628 52.3183 170.7 52.3267 170.767 52.3552C170.905 52.4144 171.217 52.5354 171.841 52.7281C171.856 52.7328 171.869 52.7376 171.883 52.7438C172.237 52.9021 177.376 55.2463 177.239 57.7601C177.229 57.9363 177.387 58.076 177.567 58.0387L179.481 57.6432C179.803 57.5766 179.922 57.4549 179.943 57.3003C180.165 55.7427 180.855 47.5304 171.177 45.2344C171.164 45.2315 171.153 45.2289 171.14 45.2271C170.757 45.1712 164.972 44.4448 160.775 51.2191C160.684 51.3671 160.828 51.5474 161.003 51.502C161.405 51.3975 161.955 51.3394 162.267 51.6614" fill="#2B2220"/>
<path fill-rule="evenodd" clip-rule="evenodd" d="M162.267 51.6614C162.415 51.8135 162.577 51.9491 162.783 52.0164C163.729 52.3263 166.365 53.06 168.847 52.5727L170.556 52.3289C170.628 52.3183 170.7 52.3267 170.767 52.3552C170.905 52.4144 171.217 52.5354 171.841 52.7281C171.856 52.7328 171.869 52.7376 171.883 52.7438C172.237 52.9021 177.376 55.2463 177.239 57.7601C177.229 57.9363 177.387 58.076 177.567 58.0387L179.481 57.6432C179.803 57.5766 179.922 57.4549 179.943 57.3003C180.165 55.7427 180.855 47.5304 171.177 45.2344C171.164 45.2315 171.153 45.2289 171.14 45.2271C170.757 45.1712 164.972 44.4448 160.775 51.2191C160.684 51.3671 160.828 51.5474 161.003 51.502C161.405 51.3975 161.955 51.3394 162.267 51.6614Z" stroke="#2B2220"/>
<path fill-rule="evenodd" clip-rule="evenodd" d="M176.415 66.6921C175.941 67.4288 174.311 69.7536 172.294 70.3541C172.147 70.3981 172.146 70.5739 172.295 70.6121C173.345 70.8833 175.915 71.3215 178.535 70.0545C178.609 70.0184 178.638 69.9354 178.599 69.8699L176.693 66.6962C176.636 66.5997 176.477 66.5969 176.415 66.6921" fill="#2B2220"/>
<path fill-rule="evenodd" clip-rule="evenodd" d="M176.415 66.6921C175.941 67.4288 174.311 69.7536 172.294 70.3541C172.147 70.3981 172.146 70.5739 172.295 70.6121C173.345 70.8833 175.915 71.3215 178.535 70.0545C178.609 70.0184 178.638 69.9354 178.599 69.8699L176.693 66.6962C176.636 66.5997 176.477 66.5969 176.415 66.6921Z" stroke="#2B2220"/>
<path d="M167.18 114.513C167.18 114.513 168.422 121.089 167.632 125.703C167.632 125.703 167.347 127.217 167.377 129.043C167.396 130.131 167.526 131.329 167.895 132.383" stroke="#2B2220"/>
<path d="M167.895 129.401C167.895 129.401 170.097 130.444 171.209 126.467C171.209 126.467 171.793 118.481 171.209 116.658" stroke="#2B2220"/>
<path d="M161.461 117.579C161.461 117.579 171.878 119.932 182.19 114.513" stroke="#2B2220"/>
<path d="M164.321 80.6118C164.321 80.6118 173.387 86.8121 179.331 79.4886" stroke="#2B2220"/>
<path fill-rule="evenodd" clip-rule="evenodd" d="M164.198 64.4832C164.594 64.5322 166.25 64.7813 166.456 65.5372C166.508 65.7264 166.338 65.9075 166.121 65.9075H163.477C163.279 65.9075 163.094 65.8091 163.01 65.6487C162.818 65.2828 162.691 64.6412 164.031 64.4827C164.086 64.476 164.143 64.4765 164.198 64.4832Z" stroke="#2B2220"/>
<path d="M168.61 54.8555C168.61 54.8555 169.348 53.8001 170.039 55.1856" stroke="#2B2220" stroke-linecap="round" stroke-linejoin="round"/>
<path d="M160.747 54.8555C160.747 54.8555 161.485 53.8001 162.176 55.1856" stroke="#2B2220" stroke-linecap="round" stroke-linejoin="round"/>
<path fill-rule="evenodd" clip-rule="evenodd" d="M164.182 61.9311C164.182 62.0519 164.084 62.2399 163.964 62.2399C163.843 62.2399 163.745 62.0519 163.745 61.9311C163.745 61.8103 163.843 61.7124 163.964 61.7124C164.084 61.7124 164.182 61.8103 164.182 61.9311" fill="#2B2220"/>
<path fill-rule="evenodd" clip-rule="evenodd" d="M164.182 61.9311C164.182 62.0519 164.084 62.2399 163.964 62.2399C163.843 62.2399 163.745 62.0519 163.745 61.9311C163.745 61.8103 163.843 61.7124 163.964 61.7124C164.084 61.7124 164.182 61.8103 164.182 61.9311Z" stroke="#2B2220" stroke-width="0.25"/>
<path fill-rule="evenodd" clip-rule="evenodd" d="M164.897 61.9311C164.897 62.0519 164.799 62.2399 164.678 62.2399C164.557 62.2399 164.459 62.0519 164.459 61.9311C164.459 61.8103 164.557 61.7124 164.678 61.7124C164.799 61.7124 164.897 61.8103 164.897 61.9311" fill="#2B2220"/>
<path fill-rule="evenodd" clip-rule="evenodd" d="M164.897 61.9311C164.897 62.0519 164.799 62.2399 164.678 62.2399C164.557 62.2399 164.459 62.0519 164.459 61.9311C164.459 61.8103 164.557 61.7124 164.678 61.7124C164.799 61.7124 164.897 61.8103 164.897 61.9311Z" stroke="#2B2220" stroke-width="0.25"/>
<path fill-rule="evenodd" clip-rule="evenodd" d="M43.198 80.8372C43.198 80.8372 37.345 76.5232 40.8567 67.7279C40.8567 67.7279 40.8119 55.7127 54.1909 55.2149C54.1909 55.2149 63.7582 54.0497 63.5155 61.8383L64.6696 67.5688C64.6696 67.5688 64.4365 68.7235 65.7745 69.3871C67.1124 70.0512 66.6445 73.0237 64.9594 73.7661L64.3716 76.3301C64.3716 76.3301 62.336 87.6976 61.5358 89.4184C61.5358 89.4184 52.4649 86.3742 52.1977 83.4619C52.1977 83.4619 44.494 82.1653 43.198 80.8372" fill="white"/>
<path fill-rule="evenodd" clip-rule="evenodd" d="M43.198 80.8372C43.198 80.8372 37.345 76.5232 40.8567 67.7279C40.8567 67.7279 40.8119 55.7127 54.1909 55.2149C54.1909 55.2149 63.7582 54.0497 63.5155 61.8383L64.6696 67.5688C64.6696 67.5688 64.4365 68.7235 65.7745 69.3871C67.1124 70.0512 66.6445 73.0237 64.9594 73.7661L64.3716 76.3301C64.3716 76.3301 62.336 87.6976 61.5358 89.4184C61.5358 89.4184 52.4649 86.3742 52.1977 83.4619C52.1977 83.4619 44.494 82.1653 43.198 80.8372Z" stroke="#2B2220"/>
<path d="M44.2041 64.4927C44.2041 64.4927 45.7427 63.3929 47.1837 64.8368" stroke="#2B2220" stroke-linecap="round" stroke-linejoin="round"/>
<path fill-rule="evenodd" clip-rule="evenodd" d="M29.5891 122.017V125.99C29.5891 126.025 29.5761 126.055 29.5496 126.077C29.275 126.305 27.6757 127.74 28.0496 130.038C28.0578 130.087 28.0361 130.136 27.9908 130.158C27.5885 130.355 25.6779 131.412 25.8345 133.653C25.8374 133.702 25.8124 133.748 25.7671 133.766C24.3133 134.375 1.93889 143.913 5.01457 153.484C5.01457 153.484 10.8522 174.672 10.447 176.216C10.4436 176.23 10.4383 176.239 10.4306 176.251C10.288 176.469 8.79616 178.806 10.4417 178.806C10.4417 178.806 18.6433 177.464 20.7471 178.722C20.8141 178.762 20.897 178.733 20.9191 178.658C21.0545 178.194 21.427 176.734 21.1205 175.594C21.1181 175.585 21.1167 175.579 21.1167 175.57C21.1273 175.082 21.4607 158.987 20.8059 157.204C20.7808 157.136 20.8194 157.065 20.8912 157.051C21.7816 156.885 26.3356 155.924 26.9452 153.58C26.9625 153.512 27.03 153.474 27.096 153.499C27.5745 153.683 29.4518 154.161 32.3155 151.874C32.3299 151.863 32.3473 151.855 32.3651 151.852L39.9856 150.407C40.0637 150.392 40.1335 150.457 40.1225 150.536C39.963 151.67 39.1443 158.502 42.3293 160.071C42.3477 160.079 42.3626 160.093 42.3732 160.11L51.4301 174.796C51.4494 174.828 51.4533 174.865 51.4393 174.899C51.3188 175.196 50.7599 176.66 51.461 176.66C51.461 176.66 60.6591 175.955 62.6607 176.782C62.7547 176.821 62.852 176.742 62.8207 176.645C62.5316 175.745 61.538 172.908 60.3579 172.407C60.3242 172.393 60.3006 172.366 60.2933 172.33C60.0789 171.278 56.8924 155.677 56.013 155.552C55.1023 155.422 57.4437 152.573 56.4029 151.407C55.3688 150.25 59.0873 151.137 58.3679 147.336C58.3601 147.294 58.3736 147.25 58.4078 147.224C59.0261 146.751 64.6647 141.951 59.148 128.003C59.1393 127.981 59.1364 127.96 59.1422 127.937C59.2487 127.508 60.3603 122.868 59.1571 120.629C59.1427 120.602 59.121 120.583 59.0916 120.573C58.1655 120.268 42.366 115.238 29.6522 121.912C29.6137 121.933 29.5891 121.973 29.5891 122.017" fill="#FFCCF9"/>
<path fill-rule="evenodd" clip-rule="evenodd" d="M29.5891 122.017V125.99C29.5891 126.025 29.5761 126.055 29.5496 126.077C29.275 126.305 27.6757 127.74 28.0496 130.038C28.0578 130.087 28.0361 130.136 27.9908 130.158C27.5885 130.355 25.6779 131.412 25.8345 133.653C25.8374 133.702 25.8124 133.748 25.7671 133.766C24.3133 134.375 1.93889 143.913 5.01457 153.484C5.01457 153.484 10.8522 174.672 10.447 176.216C10.4436 176.23 10.4383 176.239 10.4306 176.251C10.288 176.469 8.79616 178.806 10.4417 178.806C10.4417 178.806 18.6433 177.464 20.7471 178.722C20.8141 178.762 20.897 178.733 20.9191 178.658C21.0545 178.194 21.427 176.734 21.1205 175.594C21.1181 175.585 21.1167 175.579 21.1167 175.57C21.1273 175.082 21.4607 158.987 20.8059 157.204C20.7808 157.136 20.8194 157.065 20.8912 157.051C21.7816 156.885 26.3356 155.924 26.9452 153.58C26.9625 153.512 27.03 153.474 27.096 153.499C27.5745 153.683 29.4518 154.161 32.3155 151.874C32.3299 151.863 32.3473 151.855 32.3651 151.852L39.9856 150.407C40.0637 150.392 40.1335 150.457 40.1225 150.536C39.963 151.67 39.1443 158.502 42.3293 160.071C42.3477 160.079 42.3626 160.093 42.3732 160.11L51.4301 174.796C51.4494 174.828 51.4533 174.865 51.4393 174.899C51.3188 175.196 50.7599 176.66 51.461 176.66C51.461 176.66 60.6591 175.955 62.6607 176.782C62.7547 176.821 62.852 176.742 62.8207 176.645C62.5316 175.745 61.538 172.908 60.3579 172.407C60.3242 172.393 60.3006 172.366 60.2933 172.33C60.0789 171.278 56.8924 155.677 56.013 155.552C55.1023 155.422 57.4437 152.573 56.4029 151.407C55.3688 150.25 59.0873 151.137 58.3679 147.336C58.3601 147.294 58.3736 147.25 58.4078 147.224C59.0261 146.751 64.6647 141.951 59.148 128.003C59.1393 127.981 59.1364 127.96 59.1422 127.937C59.2487 127.508 60.3603 122.868 59.1571 120.629C59.1427 120.602 59.121 120.583 59.0916 120.573C58.1655 120.268 42.366 115.238 29.6522 121.912C29.6137 121.933 29.5891 121.973 29.5891 122.017Z" stroke="#231F20"/>
<path fill-rule="evenodd" clip-rule="evenodd" d="M29.2905 121.084C28.8624 119.809 28.2778 115.656 31.5102 103.892C31.515 103.876 31.5178 103.861 31.5212 103.845C31.6261 103.238 33.6557 91.0097 26.7322 88.2046C26.657 88.1746 26.5905 88.1297 26.5373 88.0682C25.8407 87.2663 20.7716 81.3404 20.0668 77.9366C20.052 77.8655 20.0266 77.8045 19.9844 77.7458C19.4415 76.9925 15.5239 71.1926 18.4815 64.4309C18.4925 64.406 18.5016 64.3803 18.5078 64.3536L20.6629 55.5592C20.7424 55.2357 21.0962 55.063 21.4012 55.2009C22.8798 55.8678 26.7806 57.3653 28.4253 55.4552C28.6584 55.1842 29.0975 55.2305 29.277 55.5391C29.7333 56.3229 30.0565 57.8075 27.9618 59.719C27.8507 59.8202 27.7827 59.9638 27.7827 60.1131V68.9013C27.7827 69.0473 27.8426 69.1861 27.9484 69.2867C29.3225 70.5896 38.9565 79.5753 45.7574 81.8995C45.8336 81.9257 45.9092 81.9338 45.9892 81.9252C47.0938 81.806 55.863 81.0718 61.5306 87.012C61.5694 87.0525 61.6005 87.0969 61.6259 87.1465C61.8619 87.6178 63.0661 90.2111 61.8619 91.8831C61.7164 92.0859 61.7212 92.3569 61.8854 92.5448C63.747 94.6701 73.6893 106.102 73.4758 107.59C73.4758 107.59 76.8805 113.402 66.3349 118.109C66.3091 118.12 66.2837 118.134 66.2607 118.149L63.1131 120.245C62.8526 120.419 62.4992 120.334 62.3484 120.06C61.5455 118.601 59.3166 114.368 59.3956 112.438C59.4038 112.237 59.524 112.063 59.7064 111.978C60.133 111.782 61.0111 111.476 61.9649 111.716C62.3034 111.8 62.6323 111.551 62.6323 111.204C62.6323 110.877 62.3417 110.634 62.0176 110.678C61.4037 110.762 60.4571 110.776 59.7758 110.245C59.4435 109.986 58.959 110.149 58.8967 110.565C58.5726 112.739 58.043 117.106 58.6051 119.432C58.6947 119.804 58.3925 120.148 58.0133 120.091C54.3936 119.542 40.2493 117.747 29.9771 121.417C29.6922 121.519 29.3867 121.37 29.2905 121.084" fill="white"/>
<path fill-rule="evenodd" clip-rule="evenodd" d="M29.2905 121.084C28.8624 119.809 28.2778 115.656 31.5102 103.892C31.515 103.876 31.5178 103.861 31.5212 103.845C31.6261 103.238 33.6557 91.0097 26.7322 88.2046C26.657 88.1746 26.5905 88.1297 26.5373 88.0682C25.8407 87.2663 20.7716 81.3404 20.0668 77.9366C20.052 77.8655 20.0266 77.8045 19.9844 77.7458C19.4415 76.9925 15.5239 71.1926 18.4815 64.4309C18.4925 64.406 18.5016 64.3803 18.5078 64.3536L20.6629 55.5592C20.7424 55.2357 21.0962 55.063 21.4012 55.2009C22.8798 55.8678 26.7806 57.3653 28.4253 55.4552C28.6584 55.1842 29.0975 55.2305 29.277 55.5391C29.7333 56.3229 30.0565 57.8075 27.9618 59.719C27.8507 59.8202 27.7827 59.9638 27.7827 60.1131V68.9013C27.7827 69.0473 27.8426 69.1861 27.9484 69.2867C29.3225 70.5896 38.9565 79.5753 45.7574 81.8995C45.8336 81.9257 45.9092 81.9338 45.9892 81.9252C47.0938 81.806 55.863 81.0718 61.5306 87.012C61.5694 87.0525 61.6005 87.0969 61.6259 87.1465C61.8619 87.6178 63.0661 90.2111 61.8619 91.8831C61.7164 92.0859 61.7212 92.3569 61.8854 92.5448C63.747 94.6701 73.6893 106.102 73.4758 107.59C73.4758 107.59 76.8805 113.402 66.3349 118.109C66.3091 118.12 66.2837 118.134 66.2607 118.149L63.1131 120.245C62.8526 120.419 62.4992 120.334 62.3484 120.06C61.5455 118.601 59.3166 114.368 59.3956 112.438C59.4038 112.237 59.524 112.063 59.7064 111.978C60.133 111.782 61.0111 111.476 61.9649 111.716C62.3034 111.8 62.6323 111.551 62.6323 111.204C62.6323 110.877 62.3417 110.634 62.0176 110.678C61.4037 110.762 60.4571 110.776 59.7758 110.245C59.4435 109.986 58.959 110.149 58.8967 110.565C58.5726 112.739 58.043 117.106 58.6051 119.432C58.6947 119.804 58.3925 120.148 58.0133 120.091C54.3936 119.542 40.2493 117.747 29.9771 121.417C29.6922 121.519 29.3867 121.37 29.2905 121.084Z" stroke="#2B2220"/>
<path fill-rule="evenodd" clip-rule="evenodd" d="M59.9418 112.328C59.9418 112.328 57.0818 112.956 55.9312 112.703C54.7811 112.449 52.5756 111.818 52.5756 111.818C52.5756 111.818 51.1372 111.381 49.5074 113.032L46.1994 116.965C46.1994 116.965 45.2886 118.712 45.912 120.994C45.912 120.994 46.3067 122.299 48.6418 122.017C48.6418 122.017 49.4797 123.585 50.2157 123.662C50.2157 123.662 54.7083 124.202 58.5669 119.857L60.0913 119.677L61.6919 119.303C61.6919 119.303 65.1723 115.225 59.9418 112.328" fill="white"/>
<path fill-rule="evenodd" clip-rule="evenodd" d="M59.9418 112.328C59.9418 112.328 57.0818 112.956 55.9312 112.703C54.7811 112.449 52.5756 111.818 52.5756 111.818C52.5756 111.818 51.1372 111.381 49.5074 113.032L46.1994 116.965C46.1994 116.965 45.2886 118.712 45.912 120.994C45.912 120.994 46.3067 122.299 48.6418 122.017C48.6418 122.017 49.4797 123.585 50.2157 123.662C50.2157 123.662 54.7083 124.202 58.5669 119.857L60.0913 119.677L61.6919 119.303C61.6919 119.303 65.1723 115.225 59.9418 112.328Z" stroke="#2B2220"/>
<path d="M51.7507 114V115.558C51.7507 115.558 53.1172 115.974 53.1429 117.325C53.1429 117.325 51.5443 118.364 49.8942 117.091C49.8942 117.091 49.172 116.337 49.5073 114.701" stroke="#2B2220" stroke-linecap="round" stroke-linejoin="round"/>
<path d="M51.651 117.389C51.651 117.389 51.776 119.415 50.024 119.198C50.024 119.198 48.0535 118.61 47.9285 116.785V115.49" stroke="#2B2220" stroke-linecap="round" stroke-linejoin="round"/>
<path d="M50.1632 119.648C50.1632 119.648 49.9107 120.951 48.8228 120.662C48.8228 120.662 47.1836 120.237 47.1836 119.317V117.724" stroke="#2B2220" stroke-linecap="round" stroke-linejoin="round"/>
<path d="M49.3418 120.704C49.3418 120.704 49.7523 121.36 48.6736 121.449" stroke="#2B2220" stroke-linecap="round" stroke-linejoin="round"/>
<path d="M53.1428 116.98C53.1428 116.98 53.8283 118.506 54.6326 118.469" stroke="#2B2220" stroke-linecap="round" stroke-linejoin="round"/>
<path d="M51.0981 119.214C51.0981 119.214 51.9197 121 51.0981 121.449" stroke="#2B2220" stroke-linecap="round" stroke-linejoin="round"/>
<path fill-rule="evenodd" clip-rule="evenodd" d="M45.616 63.0811C45.7087 62.9618 45.824 62.8656 45.9585 62.797C46.9557 62.2922 51.3225 60.1989 52.6626 61.5468C52.6626 61.5468 55.7585 63.671 56.9838 62.6482C57.3801 62.3173 57.9335 62.2453 58.336 62.5681C59.2443 63.2956 60.4452 64.8536 60.2473 67.9372C60.2458 67.9681 60.2425 67.9981 60.2381 68.029C60.157 68.5942 59.361 74.53 61.929 73.2387C61.929 73.2387 63.9743 71.2329 64.2995 73.4218C64.2995 73.4218 64.8154 75.8025 61.1023 77.3349C61.1023 77.3349 60.5485 77.1175 60.2963 77.5185C60.1565 77.7412 60.0816 78.0055 59.9528 78.1156C59.8909 78.1687 59.8443 78.2359 59.8217 78.3151C59.6766 78.8272 59.1771 80.7335 59.7112 80.9345C59.7112 80.9345 61.6057 82.9761 62.8599 81.3243C63.0578 81.0639 63.308 80.8456 63.6063 80.7147L66.2396 79.5567C66.4284 79.4741 66.5859 79.3374 66.6954 79.1625C67.4817 77.905 70.6314 72.5672 69.1308 69.9981C69.0371 69.8377 68.9771 69.6609 68.9886 69.4754C69.0645 68.2469 69.2696 63.3845 67.8055 62.7294C66.1272 61.9796 68.7369 54.4781 57.6428 51.8529C57.6428 51.8529 48.8986 49.4389 42.2022 56.1264C42.1167 56.2114 42.047 56.311 41.9951 56.4206C41.4057 57.6762 37.6922 65.7951 38.4617 69.5715C38.5045 69.7812 38.5102 69.9957 38.4521 70.2015C38.3287 70.6401 38.0381 71.3682 37.4295 71.5962C36.8862 71.7996 36.6047 72.3266 36.8372 72.86C37.3175 73.9658 38.0822 75.4789 38.993 76.3909C39.6059 77.005 40.6555 76.5866 40.7169 75.7185C40.8798 73.4329 41.3664 69.0396 42.7728 66.7546C42.7963 66.7164 42.8218 66.6812 42.8492 66.6454L45.616 63.0811Z" fill="#2B2220"/>
<path fill-rule="evenodd" clip-rule="evenodd" d="M45.616 63.0811C45.7087 62.9618 45.824 62.8656 45.9585 62.797C46.9557 62.2922 51.3225 60.1989 52.6626 61.5468C52.6626 61.5468 55.7585 63.671 56.9838 62.6482C57.3801 62.3173 57.9335 62.2453 58.336 62.5681C59.2443 63.2956 60.4452 64.8536 60.2473 67.9372C60.2458 67.9681 60.2425 67.9981 60.2381 68.029C60.157 68.5942 59.361 74.53 61.929 73.2387C61.929 73.2387 63.9743 71.2329 64.2995 73.4218C64.2995 73.4218 64.8154 75.8025 61.1023 77.3349C61.1023 77.3349 60.5485 77.1175 60.2963 77.5185C60.1565 77.7412 60.0816 78.0055 59.9528 78.1156C59.8909 78.1687 59.8443 78.2359 59.8217 78.3151C59.6766 78.8272 59.1771 80.7335 59.7112 80.9345C59.7112 80.9345 61.6057 82.9761 62.8599 81.3243C63.0578 81.0639 63.308 80.8456 63.6063 80.7147L66.2396 79.5567C66.4284 79.4741 66.5859 79.3374 66.6954 79.1625C67.4817 77.905 70.6314 72.5672 69.1308 69.9981C69.0371 69.8377 68.9771 69.6609 68.9886 69.4754C69.0645 68.2469 69.2696 63.3845 67.8055 62.7294C66.1272 61.9796 68.7369 54.4781 57.6428 51.8529C57.6428 51.8529 48.8986 49.4389 42.2022 56.1264C42.1167 56.2114 42.047 56.311 41.9951 56.4206C41.4057 57.6762 37.6922 65.7951 38.4617 69.5715C38.5045 69.7812 38.5102 69.9957 38.4521 70.2015C38.3287 70.6401 38.0381 71.3682 37.4295 71.5962C36.8862 71.7996 36.6047 72.3266 36.8372 72.86C37.3175 73.9658 38.0822 75.4789 38.993 76.3909C39.6059 77.005 40.6555 76.5866 40.7169 75.7185C40.8798 73.4329 41.3664 69.0396 42.7728 66.7546C42.7963 66.7164 42.8218 66.6812 42.8492 66.6454L45.616 63.0811Z" stroke="#2B2220"/>
<path fill-rule="evenodd" clip-rule="evenodd" d="M59.6107 68.7736C59.6107 68.7736 53.2825 65.5833 50.0392 67.938C49.8553 68.0713 49.6211 68.1014 49.4031 68.0436C48.9432 67.9227 48.117 67.7592 47.3187 67.8723C47.1507 67.896 46.9821 67.8782 46.8319 67.7977C46.0926 67.4041 43.4978 66.3236 40.1047 68.3316C39.8729 68.4693 39.7346 68.7296 39.7346 69.0052V69.1262C39.7346 69.1262 40.4696 69.2778 40.7058 69.8264C40.7384 69.902 40.748 69.9855 40.749 70.0679C40.7586 70.5959 40.8863 72.7955 42.3284 73.9585C42.6933 74.2528 43.1565 74.3857 43.6193 74.3857H44.6798C44.9904 74.3166 45.1881 74.2459 45.3278 74.0153C45.9284 73.0227 47.3643 70.2981 47.552 69.4738C47.7291 68.6955 48.4675 68.8758 48.6542 69.1538C48.7622 69.3143 48.7718 69.5237 48.8222 69.7114C49.0723 70.6532 50.0618 73.8839 52.0809 74.9205C52.1164 74.9388 52.1534 74.9551 52.1908 74.9679C52.645 75.128 55.6492 76.0603 57.5695 73.5081C57.6415 73.4118 57.6885 73.2972 57.7097 73.1772C57.8206 72.5377 58.2665 70.3652 59.2392 70.0195L59.3164 69.9934C59.7149 69.8556 59.9564 69.4022 59.7975 69.0022C59.7562 68.8985 59.6967 68.8141 59.6107 68.7736" fill="#CD36FF"/>
<path fill-rule="evenodd" clip-rule="evenodd" d="M59.6107 68.7736C59.6107 68.7736 53.2825 65.5833 50.0392 67.938C49.8553 68.0713 49.6211 68.1014 49.4031 68.0436C48.9432 67.9227 48.117 67.7592 47.3187 67.8723C47.1507 67.896 46.9821 67.8782 46.8319 67.7977C46.0926 67.4041 43.4978 66.3236 40.1047 68.3316C39.8729 68.4693 39.7346 68.7296 39.7346 69.0052V69.1262C39.7346 69.1262 40.4696 69.2778 40.7058 69.8264C40.7384 69.902 40.748 69.9855 40.749 70.0679C40.7586 70.5959 40.8863 72.7955 42.3284 73.9585C42.6933 74.2528 43.1565 74.3857 43.6193 74.3857H44.6798C44.9904 74.3166 45.1881 74.2459 45.3278 74.0153C45.9284 73.0227 47.3643 70.2981 47.552 69.4738C47.7291 68.6955 48.4675 68.8758 48.6542 69.1538C48.7622 69.3143 48.7718 69.5237 48.8222 69.7114C49.0723 70.6532 50.0618 73.8839 52.0809 74.9205C52.1164 74.9388 52.1534 74.9551 52.1908 74.9679C52.645 75.128 55.6492 76.0603 57.5695 73.5081C57.6415 73.4118 57.6885 73.2972 57.7097 73.1772C57.8206 72.5377 58.2665 70.3652 59.2392 70.0195L59.3164 69.9934C59.7149 69.8556 59.9564 69.4022 59.7975 69.0022C59.7562 68.8985 59.6967 68.8141 59.6107 68.7736Z" stroke="#2B2220"/>
<path fill-rule="evenodd" clip-rule="evenodd" d="M20.459 54.3695C20.459 54.3695 21.2542 51.6432 21.0715 50.5178C20.8888 49.3919 20.3955 47.226 20.3955 47.226C20.3955 47.226 20.0487 45.8117 21.7836 44.3321L25.8821 41.3615C25.8821 41.3615 27.6703 40.5813 29.8956 41.3132C29.8956 41.3132 31.1661 41.7688 30.7455 44.008C30.7455 44.008 32.2504 44.9065 32.2826 45.6219C32.2826 45.6219 32.5483 49.9922 28.0083 53.4709L27.7382 54.9327L27.2703 56.4569C27.2703 56.4569 23.0179 59.5862 20.459 54.3695" fill="white"/>
<path fill-rule="evenodd" clip-rule="evenodd" d="M20.459 54.3695C20.459 54.3695 21.2542 51.6432 21.0715 50.5178C20.8888 49.3919 20.3955 47.226 20.3955 47.226C20.3955 47.226 20.0487 45.8117 21.7836 44.3321L25.8821 41.3615C25.8821 41.3615 27.6703 40.5813 29.8956 41.3132C29.8956 41.3132 31.1661 41.7688 30.7455 44.008C30.7455 44.008 32.2504 44.9065 32.2826 45.6219C32.2826 45.6219 32.5483 49.9922 28.0083 53.4709L27.7382 54.9327L27.2703 56.4569C27.2703 56.4569 23.0179 59.5862 20.459 54.3695Z" stroke="#2B2220"/>
<path d="M22.6021 46.1611L24.1563 46.2511C24.1563 46.2511 24.489 47.6012 25.8345 47.704C25.8345 47.704 26.9666 46.2123 25.7964 44.5373C25.7964 44.5373 25.0886 43.7932 23.4364 44.024" stroke="#2B2220" stroke-linecap="round" stroke-linejoin="round"/>
<path d="M26.5786 46.9477C26.5786 46.9477 28.6738 47.1872 28.5564 45.4797C28.5564 45.4797 28.0674 43.5384 26.1801 43.3104L24.8367 43.2347" stroke="#2B2220" stroke-linecap="round" stroke-linejoin="round"/>
<path d="M28.1558 44.7245C28.1558 44.7245 29.5175 44.5693 29.278 43.5079C29.278 43.5079 28.9259 41.9101 27.9739 41.8497L26.3267 41.7449" stroke="#2B2220" stroke-linecap="round" stroke-linejoin="round"/>
<path d="M29.3062 43.8732C29.3062 43.8732 30.5367 44.3648 30.7959 43.2347" stroke="#2B2220" stroke-linecap="round" stroke-linejoin="round"/>
<path d="M26.3267 47.704C26.3267 47.704 27.908 48.4329 27.8123 49.1938" stroke="#2B2220" stroke-linecap="round" stroke-linejoin="round"/>
<path d="M27.8162 46.3421C27.8162 46.3421 29.5661 47.3082 30.0509 46.5253" stroke="#2B2220" stroke-linecap="round" stroke-linejoin="round"/>
<path d="M39.7346 150.5C39.7346 150.5 45.0062 146.464 51.653 146.795" stroke="#2B2220"/>
<path fill-rule="evenodd" clip-rule="evenodd" d="M39.4407 128.188C39.4407 128.188 48.1534 126.433 49.4183 128.188V137.557C49.4183 137.557 47.4704 141.561 44.4295 141.561C44.4295 141.561 39.4064 140.314 38.2449 137.229C38.2449 137.229 38.6185 128.34 39.4407 128.188" fill="white"/>
<path fill-rule="evenodd" clip-rule="evenodd" d="M39.4407 128.188C39.4407 128.188 48.1534 126.433 49.4183 128.188V137.557C49.4183 137.557 47.4704 141.561 44.4295 141.561C44.4295 141.561 39.4064 140.314 38.2449 137.229C38.2449 137.229 38.6185 128.34 39.4407 128.188Z" stroke="#2B2220"/>
<path d="M53.3083 128.898C53.3083 128.898 55.0931 137.168 52.3979 142.306" stroke="#2B2220"/>
<path fill-rule="evenodd" clip-rule="evenodd" d="M10.8521 173.701C10.2643 174.096 9.56288 174.794 9.13833 176.005C9.13833 176.005 4.62028 174.614 1.33607 177.297C1.33607 177.297 -1.47065 183.259 9.13833 185.842C9.13833 185.842 18.7525 190.612 22.3354 185.048C22.3354 185.048 23.7286 177.197 20.1456 174.713C20.1456 174.713 16.6622 174.713 15.0704 177.396C15.0704 177.396 12.0116 178.879 11.8722 174.242C11.8566 173.727 11.2805 173.414 10.8521 173.701" fill="white"/>
<path fill-rule="evenodd" clip-rule="evenodd" d="M10.8521 173.701C10.2643 174.096 9.56288 174.794 9.13833 176.005C9.13833 176.005 4.62028 174.614 1.33607 177.297C1.33607 177.297 -1.47065 183.259 9.13833 185.842C9.13833 185.842 18.7525 190.612 22.3354 185.048C22.3354 185.048 23.7286 177.197 20.1456 174.713C20.1456 174.713 16.6622 174.713 15.0704 177.396C15.0704 177.396 12.0116 178.879 11.8722 174.242C11.8566 173.727 11.2805 173.414 10.8521 173.701Z" stroke="#2B2220"/>
<path fill-rule="evenodd" clip-rule="evenodd" d="M52.5664 171.467C51.9787 171.861 51.2772 172.559 50.8527 173.77C50.8527 173.77 46.3346 172.379 43.0504 175.062C43.0504 175.062 40.2437 181.024 50.8527 183.607C50.8527 183.607 60.4668 188.377 64.0498 182.813C64.0498 182.813 65.4429 174.963 61.86 172.478C61.86 172.478 58.3766 172.478 56.7848 175.161C56.7848 175.161 53.7259 176.645 53.5865 172.007C53.571 171.492 52.9949 171.179 52.5664 171.467" fill="white"/>
<path fill-rule="evenodd" clip-rule="evenodd" d="M52.5664 171.467C51.9787 171.861 51.2772 172.559 50.8527 173.77C50.8527 173.77 46.3346 172.379 43.0504 175.062C43.0504 175.062 40.2437 181.024 50.8527 183.607C50.8527 183.607 60.4668 188.377 64.0498 182.813C64.0498 182.813 65.4429 174.963 61.86 172.478C61.86 172.478 58.3766 172.478 56.7848 175.161C56.7848 175.161 53.7259 176.645 53.5865 172.007C53.571 171.492 52.9949 171.179 52.5664 171.467Z" stroke="#2B2220"/>
<path fill-rule="evenodd" clip-rule="evenodd" d="M60.1947 142.855C60.1947 142.855 56.2384 143.326 57.1537 138.502C57.1537 138.502 57.9083 132.148 57.0159 130.382C57.0159 130.382 59.3725 129.565 59.6267 130.382" fill="white"/>
<path d="M60.1947 142.855C60.1947 142.855 56.2384 143.326 57.1537 138.502C57.1537 138.502 57.9083 132.148 57.0159 130.382C57.0159 130.382 59.3725 129.565 59.6267 130.382" stroke="#2B2220"/>
<path fill-rule="evenodd" clip-rule="evenodd" d="M47.5999 76.0185C48.1781 76.0952 50.5943 76.4841 50.8945 77.6661C50.9699 77.9618 50.7224 78.2449 50.4054 78.2449H46.5476C46.2587 78.2449 45.9899 78.0907 45.8668 77.8403C45.5861 77.268 45.4022 76.2655 47.3565 76.0172C47.4369 76.0072 47.5195 76.0081 47.5999 76.0185Z" stroke="#2B2220"/>
<path d="M48.6736 84.949C48.6736 84.949 58.5881 86.7733 59.8471 90.9082" stroke="#2B2220"/>
<path d="M21.8572 58.8776C21.8572 58.8776 24.5586 61.5561 26.3266 59.73" stroke="#2B2220"/>
<path d="M65.0535 117.725C65.0535 117.725 65.258 115.73 63.5715 113.255" stroke="#2B2220"/>
<path d="M53.8877 64.4927C53.8877 64.4927 55.4262 63.3929 56.8673 64.8368" stroke="#2B2220" stroke-linecap="round" stroke-linejoin="round"/>
<path fill-rule="evenodd" clip-rule="evenodd" d="M48.5289 73.3557C48.5289 73.4816 48.4268 73.6783 48.3009 73.6783C48.175 73.6783 48.073 73.4816 48.073 73.3557C48.073 73.2298 48.175 73.1278 48.3009 73.1278C48.4268 73.1278 48.5289 73.2298 48.5289 73.3557" fill="#2B2220"/>
<path fill-rule="evenodd" clip-rule="evenodd" d="M48.5289 73.3557C48.5289 73.4816 48.4268 73.6783 48.3009 73.6783C48.175 73.6783 48.073 73.4816 48.073 73.3557C48.073 73.2298 48.175 73.1278 48.3009 73.1278C48.4268 73.1278 48.5289 73.2298 48.5289 73.3557Z" stroke="#2B2220" stroke-width="0.25"/>
<path fill-rule="evenodd" clip-rule="evenodd" d="M50.0188 73.3557C50.0188 73.4816 49.9168 73.6783 49.7909 73.6783C49.665 73.6783 49.563 73.4816 49.563 73.3557C49.563 73.2298 49.665 73.1278 49.7909 73.1278C49.9168 73.1278 50.0188 73.2298 50.0188 73.3557" fill="#2B2220"/>
<path fill-rule="evenodd" clip-rule="evenodd" d="M50.0188 73.3557C50.0188 73.4816 49.9168 73.6783 49.7909 73.6783C49.665 73.6783 49.563 73.4816 49.563 73.3557C49.563 73.2298 49.665 73.1278 49.7909 73.1278C49.9168 73.1278 50.0188 73.2298 50.0188 73.3557Z" stroke="#2B2220" stroke-width="0.25"/>
</svg>
